/* XPM */
static char *result[] = {
/* columns rows colors chars-per-pixel */
"57 57 226 2 ",
"   c #010102",
".  c #0B0502",
"X  c #0A0907",
"o  c #130903",
"O  c #1B0D04",
"+  c #160907",
"@  c #18191A",
"#  c #0E1012",
"$  c #240D04",
"%  c #2A1406",
"&  c #3C1D03",
"*  c #3D1C0C",
"=  c #341709",
"-  c #331F18",
";  c #372614",
":  c #322702",
">  c #1F2224",
",  c #292727",
"<  c #2B2826",
"1  c #2C2B2A",
"2  c #242525",
"3  c #322A22",
"4  c #312E2C",
"5  c #38322C",
"6  c #343232",
"7  c #393635",
"8  c #3A3836",
"9  c #3D3B39",
"0  c #2C3234",
"q  c #431E0F",
"w  c #481D10",
"e  c #492404",
"r  c #562B01",
"t  c #5B2D00",
"y  c #51250B",
"u  c #5D3102",
"i  c #5D3409",
"p  c #553703",
"a  c #4A2812",
"s  c #582913",
"d  c #4D3418",
"f  c #602E01",
"g  c #633203",
"h  c #6A3303",
"j  c #663609",
"k  c #73360C",
"l  c #7C3B0C",
"z  c #743807",
"x  c #652D14",
"c  c #692C13",
"v  c #683518",
"b  c #7B3912",
"n  c #74381B",
"m  c #763518",
"M  c #413E3C",
"N  c #473731",
"B  c #533B2D",
"V  c #5F4001",
"C  c #664603",
"Z  c #684600",
"A  c #6C4217",
"S  c #764616",
"D  c #6F5214",
"F  c #43413F",
"G  c #774724",
"H  c #775034",
"J  c #7D6530",
"K  c #1F3E50",
"L  c #403F40",
"P  c #1E445B",
"I  c #284757",
"U  c #264658",
"Y  c #254959",
"T  c #294959",
"R  c #274756",
"E  c #354B57",
"W  c #2B505E",
"Q  c #355664",
"!  c #33626B",
"~  c #3A777B",
"^  c #366C71",
"/  c #494746",
"(  c #484D51",
")  c #575B5B",
"_  c #765445",
"`  c #614E48",
"'  c #477977",
"]  c #5A7A72",
"[  c #667769",
"{  c #7B6D59",
"}  c #900B17",
"|  c #B20E1A",
" . c #823E0C",
".. c #883F0F",
"X. c #843B1A",
"o. c #873C17",
"O. c #9D3514",
"+. c #BD0528",
"@. c #893D20",
"#. c #903F20",
"$. c #BB262E",
"%. c #C00E1D",
"&. c #C3171F",
"*. c #C9291C",
"=. c #CC331D",
"-. c #C60F21",
";. c #C11222",
":. c #C41C2C",
">. c #D61B21",
",. c #C62633",
"<. c #89400F",
"1. c #894419",
"2. c #944414",
"3. c #94421E",
"4. c #9A4917",
"5. c #9C531E",
"6. c #A34C19",
"7. c #AC4D1D",
"8. c #A55019",
"9. c #AB521C",
"0. c #B3571F",
"q. c #A2781B",
"w. c #874521",
"e. c #934121",
"r. c #9D4523",
"t. c #974E2E",
"y. c #885829",
"u. c #9C5425",
"i. c #945439",
"p. c #875A3B",
"a. c #AB4B24",
"s. c #A24823",
"d. c #B54E24",
"f. c #AB5626",
"g. c #B45022",
"h. c #BB5324",
"j. c #BD5B2B",
"k. c #B85823",
"l. c #B45932",
"z. c #AB5531",
"x. c #95702D",
"c. c #B8623C",
"v. c #AA643E",
"b. c #987016",
"n. c #CF4A1B",
"m. c #DB6419",
"M. c #C35526",
"N. c #CB5625",
"B. c #C55B26",
"V. c #C95827",
"C. c #C65728",
"Z. c #C65929",
"A. c #CA5929",
"S. c #C95728",
"D. c #D25D2A",
"F. c #D45A25",
"G. c #C35B30",
"H. c #CE632B",
"J. c #CB6729",
"K. c #D5632C",
"L. c #DA642E",
"P. c #DC692D",
"I. c #D2682E",
"U. c #D66732",
"Y. c #DC6730",
"T. c #DA6A34",
"R. c #CA6B38",
"E. c #E5692F",
"W. c #E46B32",
"Q. c #EA6D32",
"!. c #EC7234",
"~. c #EA753A",
"^. c #F47536",
"/. c #F67837",
"(. c #FC7936",
"). c #F67738",
"_. c #F87738",
"`. c #F77939",
"'. c #FA7939",
"]. c #FB7633",
"[. c #FA742F",
"{. c #E07217",
"}. c #CB3A47",
"|. c #96674A",
" X c #8F6E53",
".X c #A76B4B",
"XX c #AD7C6C",
"oX c #C97A4A",
"OX c #CC714A",
"+X c #D0505A",
"@X c #608277",
"#X c #B7870D",
"$X c #A48436",
"%X c #B68723",
"&X c #F5A812",
"*X c #FABC10",
"=X c #C39625",
"-X c #C28F27",
";X c #FF8239",
":X c #DCA932",
">X c #DBA92D",
",X c #DB9211",
"<X c #FEC410",
"1X c #BF8648",
"2X c #B88772",
"3X c #EA8251",
"4X c #D59161",
"5X c #E9C557",
"6X c #EFCC6B",
"7X c #FFE47E",
"8X c #317780",
"9X c #3C8283",
"0X c #348588",
"qX c #418281",
"wX c #AA9790",
"eX c #BAA094",
"rX c #96A6B4",
"tX c #D29A92",
"yX c #CBA6A7",
"uX c #FFE680",
"iX c #94AFC2",
"pX c #B9C6DB",
"aX c #DCEBFF",
"sX c #E3E5FF",
"dX c #E0D5F1",
"fX c None",
/* pixels */
"fXfXfXfXfXfXfXfXfXfXfXfXfXfXfXfXfXfXfXfXfXfXfXfXfXfXfXfXfXfXfXfXfXfXfXfXfXfXfXfXfXfXfXfXfXfXfXfXfXfXfXfXfXfXfXfXfX",
"fXfXfXfXfXfXfXfXfXfXfXfXfXfXfXfXfXfXfXfXfXfXfXfXfXfXfXfXfXfXfXfXfXfXfXfXfXfXfXfXfXfXfXfXfXfXfXfXfXfXfXfXfXfXfXfXfX",
"fXfXfXfXfXfXfXfXfXfXfXfXfXfXfXfXfXfXfXfXfXfXfXfXfXfXfXfXfXfXfXfXfXfXfXfXfXfXfXfXfXfXfXfXfXfXfXfXfXfXfXfXfXfXfXfXfX",
"fXfXfXfXfXfXfXfXfXfXfXfXfXfXfXfXfXfXfXfXfXfXfXfXfXfXfXfXfXfXfXfXfXfXfXfXfXfXfXfXfXfXfXfXfXfXfXfXfXfXfXfXfXfXfXfXfX",
"fXfXfXfXfXfXfXfXfXfXfXfXfXfXfXfXfXfXfXfXfXfXfXfXfXfXfXfXl z z z u fXfXfXfXfXfXfXfXfXfXfXfXfXfXfXfXfXfXfXfXfXfXfXfX",
"fXfXfXfXfXfXfXfXfXfXfXfXfXfXfXfXfXfXfXfXfXfXfXfXfXg t z h.Z.B.a.g j fXfXfXfXfXfXfXfXfXfXfXfXfXfXfXfXfXfXfXfXfXfXfX",
"fXfXfXfXfXfXfXfXfXfXfXfXfXfXfXfXfXfXfXfXfXfXfXfX.. .l ..6.8.7.f.p.fXfXfXfXfXfXfXfXfXfXfXfXfXfXfXfXfXfXfXfXfXfXfXfX",
"fXfXfXfXfXfXfXfXfXfXfXfXfXfXfXfXfXfXA j j j j j a.D.D.h.j r r G fXfXfXfXfXfXfXfXfXfXfXfXfXfXfXfXfXfXfXfXfXfXfXfXfX",
"fXfXfXfXfXfXfXfXfXfXfXfXfXfXfXfXfXfXS l l  .l z 7.V.g.6.h t f G fXfXfXfXfXfXfXfXfXfXfXfXfXfXfXfXfXfXfXfXfXfXfXfXfX",
"fXfXfXfXfXfXfXfXfXfXfXfXfXfXfXr r u 1.~.'._.K.A.A.M.h r r r t e       O t fXfXfXfXfXfXfXfXfXfXfXfXfXfXfXfXfXfXfXfX",
"fXfXfXfXfXfXfXfXfXfXfXfXfXfXfX9.8.9.H.(.'./.9.2.4.4.2.2.8.8.8.4.n s o $ k w.fXfXfXfXfXfXfXfXfXfXfXfXfXfXfXfXfXfXfX",
"fXfXfXfXfXfXfXfXfXfXfXfXfXi 9.'.`.`./._.'./.l u t h g.D.^.`.`.`.'.j.$ % e.k u u j fXfXfXfXfXfXfXfX}.:.fXfXfXfXfXfX",
"fXfXfXfXfXfXfXfXfXfXfXfXl.0.I.(.`._././.`./.B.0.0.k.E.W.P.P.6.6.8.1.s x e.X.b b b G fXfXfXfXfXfX,.,.fXfXfXfXfXfXfX",
"fXfXfXfXfXi i i i i i i 0.'.'./././././.'./.'.'.;X'.'._.D.A.g t t h 3.r.r.e.e.e.e.b j fXfXfXfX}.:.+XfXfXfXfXfXfXfX",
"fXfXfXfXfX0.8.9.8.9.4.2.J.'.`./._.`.'._.'.`.W.W.K.Z.k.9.4.4.fXfXj u y a w v e.e.e.o.b fXfXfXfX}.:.fXfXfXfXfXfXfXfX",
"fXfXfXA z '.'.'.'.;XQ.A.Q.`.`././._.'.'.`.'.A.Z.r.X.t r r t fXfXk q o     w X.#.3.e.w.k g fXfX}.+.%.;.fXfXfXfXfXfX",
"fXfXfXG z ^._._._.'.!.W.!./.`.`.Q.U.OX2XT.E.D.S.h.a.X.k g f fXfX; & n w.3.x q * * * * x k fXfX,.&.%.%.,.fXfXfXfXfX",
"fXfXfXA k ).'._./._._.'./.^.!.!.T.R.2XiXl.M.S.A.G.C.s.o.f t fXfX# * I.'.;Xw.. . . . . s @.k r } %.&.&.+.;.fXfXfXfX",
"fXfXfXd y ^._.Y.W./.`.'.T.A.v.|.2XtXyXpXOXM.K.E.D.S.d.#.e % fXfX; e 4.Z.W.f.n n n m n s y q = } &.n.m.*.:.fXfXfXfX",
"fXfXfX@ % ^.Q.h.A.'.'.'.d.o.B P rXsXsXaXOXM.!.'.U.M.A.a.o   fXfXA t g  .M.Q.;X(.(.;X'.s       } >.,X<X=.+.fXfXfXfX",
"fXfXfX> $ V.E.).^.'._./.^.Q. X~ iXdXyXOX!.!._._.L.C.A.a.+   fXk #.c $ w N.p.( ) @X|.K.H.H.H.I.w = ,X<X&X{.,.fXfXfX",
"fXfXfXfX- h.K.`.'././.'.'.(.XXqXrXdXtXM.^.'._.^.D.A.A.s.O   r j #.m + = N._ P W 0X{ N.E.`.(.'.a o q.*X*X&X*.%.fXfX",
"fXfXfXfXfX= B eX2XD.W._.'./.~.oXoX3X3X^._._.Y.D.A.V.A.h.m m o = #.m + = F._ T W qX@X@X@X@X.XF.Z.j.i : #X&X=.%.fXfX",
"fXfXfXfXfX  6 rXwXM.P.'.'.'.(.(.(.].'.'._._.D.M.V.V.A.M.r.e.  $ #.m + = F.H T W qXqX0X0X0X{ N.]./.q   #X&X=.;.fXfX",
"fXfXfXfXfXfXfX9 6 * x 2.0.P.Q.'.'.'.'.'.j.f.C.V.A.A.V.h.b h e & % q m G ` ( T T Q ^ 9X0X9X] { OX!.*   O.n.-.;.fXfX",
"fXfXfXfXfXfXfX      % r 6.a.B.T.W.Q.!.^.s.#.h.A.V.C.V.h.k g z y o * a.i.U U T U U ! 9X@X9X9X0XoXQ.s O } | -.fXfXfX",
"fXfXfXfXfXfXfXfXfXfXfXfXfXO + o e z ..s.h.M.C.Z.Z.A.C.C.h.h.h.h.d.t./ E U U U T U ! 9X~ @X0X8X.XA.P.P.a + fXfXfXfX",
"fXfXfXfXfXfXfXfXfXfXfXfXfX@ @ @ a A G n Z.H.A.A.A.C.A.C.N.V.z.l.j.i.E Y T U T T U ! 9X~ ~ ~ ~ |.c.!.'.*   fXfXfXfX",
"fXfXfXfXfXfXfXfXfXfXfXfXfXfXfXfXfXfXy.V =X:XJ.Z.V.V.V.A.A.V.E E E E T I T T I I U ! qX! W W Y ' ] oX(.* X fXfXfXfX",
"fXfXfXfXfXfXfXfXfXfXfXfXfXfXfXfXfXfXJ p =X:XJ.C.A.A.V.N.A.V.I Y Y Y I I I I I I R ! 9X! Y T K 8X@XoX(.*   fXfXfXfX",
"fXfXfXfXfXfXfXfXfXfXfXfXfXfXfXfXfXfXfXp =X:Xu.@.U.).r.3.M.N.N.i.T fXfXfXfXfXI R T T R fXfXfXfX2 X l.;Xa   fXfXfXfX",
"fXfXfXfXfXfXfXfXfXfXfXfXfXfXfXfXfXfXx.J %X%Xf.a.U.W.3.1.A.L.N.l.( ` fXfXfXfXQ Q I W W fXfXfXfXN = w.c.=   fXfXfXfX",
"fXfXfXfXfXfXfXfXfXfXfXfXfXfXfXfXfXD $X7XS g P.(.P.h.g z !.'.A.C.V.g.S B fXfXfXfXT Q fXfXfXfXfX.XX.%     X fXfXfXfX",
"fXfXfXfXfXfXfXfXfXfXfXfXfXfXfXfXfXC $XuXS t P.;XB.7.<.2.!.'.D.D.A.g.z fXfXfXfXfXE fXfXfXfXfXfXv.3.= + X fXfXfXfXfX",
"fXfXfXfXfXfXfXfXfXfXfXfXfXfXfXfXfXC $XuXS f P.'.4.z I.!._.'.^.W.C.h.3.b r fXfXfXfXfXfXfXv v v f.h.k e fXfXfXfXfXfX",
"fXfXfXfXfXfXfXfXfXfXfXfXfXfXfXfXfXC $XuXy.h 0.K.4.4.!.'._._.'.!.A.M.a.3. .y.fXfXfXfXfXv.<.l z g.B.l u fXfXfXfXfXfX",
"fXfXfXfXfXfXfXfXfXfXfXfXfXfXfXfXfXC $XuXt.o.g u k.;X/./././.'.!.A.C.A.V.A.4.t i u t f 4.B.B.C.A.V.l r fXfXfXfXfXfX",
"fXfXfXfXfXfXfXfXfXfXfXfXfXfXfXfXfXZ q.5X1X1X5.2.P.;X`.'.(./.E.P.A.M.a.d.A.7.2.2.2.2.2.d.Z.B.A.6.2.fXfXfXfXfXfXfXfX",
"fXfXfXfXfXfXfXfXfXfXfXfXfXfXfXfXfXZ q.>X6X6XR.N.W.'.'./.'./.V.V.A.h.r.s.V.V.B.A.V.V.A.A.A.A.D.l g fXfXfXfXfXfXfXfX",
"fXfXfXfXfXfXfXfXfXfXfXfXfXfXfXfXfXZ q.=X5X6XR.h.W.(.'././.^.V.M.h.a.e.r.V.V.A.A.V.V.A.M.M.h.h. .fXfXfXfXfXfXfXfXfX",
"fXfXfXfXfXfXfXfXfXfXfXfXfXfXfXfXfXfXfXr %X>X5.X.T.'.'.~.V.M.D.7.r g X.s.B.V.V.A.A.A.A.s.#.k r fXfXfXfXfXfXfXfXfXfX",
"fXfXfXfXfXfXfXfXfXfXfXfXfXfXfXfXfXfXfXfXq.q.1.k f.A.E.Y.A.V.d.o.% e r.d.A.h.d.a.2.4.2...b fXfXfXfXfXfXfXfXfXfXfXfX",
"fXfXfXfXfXfXfXfXfXfXfXfXfXfXfXfXfXfXfXfXd V p u b r.M.C.V.B.#.c   = a.C.S.a.e.X.t g i g g fXfXfXfXfXfXfXfXfXfXfXfX",
"fXfXfXfXfXfXfXfXfXfXfXfXfXfXfXfXfXfXfX1 < 3 ; $ _ XXG.V.A.S.* = & e l 2...b l d < 3 5 fXfXfXfXfXfXfXfXfXfXfXfXfXfX",
"fXfXfXfXfXfXfXfXfXfXfXfXfXfXfXfXfX9 8 4 , , 2   ) wXOXF.D.D.. O t g h h g h h a 2 , 6 M fXfXfXfXfXfXfXfXfXfXfXfXfX",
"fXfXfXfXfXfXfXfXfXfXfXfXfXfXfXfXfXM 8 1 , , 2 2 @ L v c v s > 2 3 ; 3 3 3 3 ; 1 1 1 8 F / fXfXfXfXfXfXfXfXfXfXfXfX",
"fXfXfXfXfXfXfXfXfXfXfXfXfXfXfXfXM M M 4 , , , 1 @         X 1 < , , , , , , , , 1 7 9 F F F fXfXfXfXfXfXfXfXfXfXfX",
"fXfXfXfXfXfXfXfXfXfXfXfXfXfXfXfX/ M M 9 4 1 , , 1 4 4 4 4 1 1 < , , , , , 1 4 4 9 9 F / F fXfXfXfXfXfXfXfXfXfXfXfX",
"fXfXfXfXfXfXfXfXfXfXfXfXfXfXfXfXfX/ F F 9 8 6 6 4 4 4 1 1 1 1 1 1 4 4 4 6 7 9 9 F F F F / fXfXfXfXfXfXfXfXfXfXfXfX",
"fXfXfXfXfXfXfXfXfXfXfXfXfXfXfXfXfXfXF F F M M M 9 9 8 8 7 7 7 6 7 8 7 M 9 M M M F F F fXfXfXfXfXfXfXfXfXfXfXfXfXfX",
"fXfXfXfXfXfXfXfXfXfXfXfXfXfXfXfXfXfXfXfXfXF M F F F / M F F M F E F M F F F F F F fXfXfXfXfXfXfXfXfXfXfXfXfXfXfXfX",
"fXfXfXfXfXfXfXfXfXfXfXfXfXfXfXfXfXfXfXfXfXfXfXfXfXfXM F F F F F N F F fXfXfXfXfXfXfXfXfXfXfXfXfXfXfXfXfXfXfXfXfXfX",
"fXfXfXfXfXfXfXfXfXfXfXfXfXfXfXfXfXfXfXfXfXfXfXfXfXfXfXfXfXfXfXfXfXfXfXfXfXfXfXfXfXfXfXfXfXfXfXfXfXfXfXfXfXfXfXfXfX",
"fXfXfXfXfXfXfXfXfXfXfXfXfXfXfXfXfXfXfXfXfXfXfXfXfXfXfXfXfXfXfXfXfXfXfXfXfXfXfXfXfXfXfXfXfXfXfXfXfXfXfXfXfXfXfXfXfX",
"fXfXfXfXfXfXfXfXfXfXfXfXfXfXfXfXfXfXfXfXfXfXfXfXfXfXfXfXfXfXfXfXfXfXfXfXfXfXfXfXfXfXfXfXfXfXfXfXfXfXfXfXfXfXfXfXfX",
"fXfXfXfXfXfXfXfXfXfXfXfXfXfXfXfXfXfXfXfXfXfXfXfXfXfXfXfXfXfXfXfXfXfXfXfXfXfXfXfXfXfXfXfXfXfXfXfXfXfXfXfXfXfXfXfXfX",
"fXfXfXfXfXfXfXfXfXfXfXfXfXfXfXfXfXfXfXfXfXfXfXfXfXfXfXfXfXfXfXfXfXfXfXfXfXfXfXfXfXfXfXfXfXfXfXfXfXfXfXfXfXfXfXfXfX"
};
