/* XPM */
static char *result[] = {
/* columns rows colors chars-per-pixel */
"64 64 169 2 ",
"   c black",
".  c #0B0502",
"X  c #0D0C0C",
"o  c #150A02",
"O  c #1B0D03",
"+  c #140C09",
"@  c #161414",
"#  c #1D1C1B",
"$  c #210F07",
"%  c #220F08",
"&  c #251300",
"*  c #2B1502",
"=  c #25130A",
"-  c #2C1509",
";  c #331A00",
":  c #391C00",
">  c #34170B",
",  c #351A0C",
"<  c #3B1B0C",
"1  c #211A15",
"2  c #201E1D",
"3  c #362614",
"4  c #252323",
"5  c #2A2827",
"6  c #2D2B2A",
"7  c #312F2D",
"8  c #32302F",
"9  c #353331",
"0  c #393634",
"q  c #3B3837",
"w  c #3E3B39",
"e  c #47080C",
"r  c #421E0D",
"t  c #650811",
"y  c #442200",
"u  c #4C2602",
"i  c #43210F",
"p  c #4B220E",
"a  c #562B00",
"s  c #5C2E02",
"d  c #562B0A",
"f  c #513107",
"g  c #5E3001",
"h  c #563F06",
"j  c #4E2411",
"k  c #432914",
"l  c #542612",
"z  c #542813",
"x  c #5C2A14",
"c  c #602F03",
"v  c #702B05",
"b  c #603000",
"n  c #6A3405",
"m  c #6F350A",
"M  c #723707",
"N  c #713806",
"B  c #73370B",
"V  c #763809",
"C  c #7C3B0B",
"Z  c #622D16",
"A  c #772017",
"S  c #6D3016",
"D  c #6A3219",
"F  c #733417",
"G  c #7B3912",
"H  c #74351A",
"J  c #7B3619",
"K  c #75381A",
"L  c #7C3B1C",
"P  c #413E3C",
"I  c #44413F",
"U  c #B30F1E",
"Y  c #A81818",
"T  c #86230D",
"R  c #81340C",
"E  c #843E0E",
"W  c #832E11",
"Q  c #922011",
"!  c #9D2815",
"~  c #833C15",
"^  c #843C1A",
"/  c #8B3E1C",
"(  c #AF321A",
")  c #BF1020",
"_  c #AC2420",
"`  c #A62B20",
"'  c #C2171F",
"]  c #C51F1F",
"[  c #C6231E",
"{  c #C92C1D",
"}  c #CB321D",
"|  c #CE391C",
" . c #C01120",
".. c #C21E22",
"X. c #C32E23",
"o. c #C43624",
"O. c #C53D25",
"+. c #D23228",
"@. c #85410E",
"#. c #8A440F",
"$. c #8C4211",
"%. c #8E431B",
"&. c #944414",
"*. c #9B4616",
"=. c #944913",
"-. c #94421D",
";. c #A34A1A",
":. c #AC4D1D",
">. c #B24F1F",
",. c #A55119",
"<. c #AD551D",
"1. c #B1571E",
"2. c #8F4320",
"3. c #904020",
"4. c #9B4522",
"5. c #A14722",
"6. c #A44922",
"7. c #AB4B23",
"8. c #BE4625",
"9. c #B14E24",
"0. c #A75126",
"q. c #AE5427",
"w. c #B55122",
"e. c #BB5324",
"r. c #B75920",
"t. c #B85728",
"y. c #BA5A2A",
"u. c #D34A1A",
"i. c #CB5616",
"p. c #DD6818",
"a. c #C94625",
"s. c #D4432A",
"d. c #C35627",
"f. c #C35C25",
"g. c #CA5B27",
"h. c #C55728",
"j. c #C25B2A",
"k. c #C85828",
"l. c #D15E2B",
"z. c #CB6327",
"x. c #C8612D",
"c. c #D16B23",
"v. c #D5622C",
"b. c #DA642E",
"n. c #D6682B",
"m. c #DD6A2E",
"M. c #D46730",
"N. c #DF6730",
"B. c #D76830",
"V. c #DD6931",
"C. c #E06D2F",
"Z. c #E16530",
"A. c #E46C32",
"S. c #EA6F33",
"D. c #E77032",
"F. c #ED7234",
"G. c #F47537",
"H. c #F77738",
"J. c #F77838",
"K. c #F87838",
"L. c #DC841A",
"P. c #E78615",
"I. c #EA8F14",
"U. c #EC9414",
"Y. c #E59219",
"T. c #EEA316",
"R. c #F4AC11",
"E. c #F8B810",
"W. c None",
/* pixels */
"W.W.W.W.W.W.W.W.W.W.W.W.W.W.W.W.W.W.W.W.W.W.W.W.W.W.W.W.W.W.W.W.W.W.W.W.W.W.W.W.W.W.W.W.W.W.W.W.W.W.W.W.W.W.W.W.W.W.W.W.W.W.W.W.",
"W.W.W.W.W.W.W.W.W.W.W.W.W.W.W.W.W.W.W.W.W.W.W.W.W.W.W.W.W.W.W.W.W.W.W.W.W.W.W.W.W.W.W.W.W.W.W.W.W.W.W.W.W.W.W.W.W.W.W.W.W.W.W.W.",
"W.W.W.W.W.W.W.W.W.W.W.W.W.W.W.W.W.W.W.W.W.W.W.W.W.W.W.W.W.W.W.W.W.W.W.W.W.W.W.W.W.W.W.W.W.W.W.W.W.W.W.W.W.W.W.W.W.W.W.W.W.W.W.W.",
"W.W.W.W.W.W.W.W.W.W.W.W.W.W.W.W.W.W.W.W.W.W.W.W.W.W.W.W.W.W.W.W.W.W.W.W.W.W.W.W.W.W.W.W.W.W.W.W.W.W.W.W.W.W.W.W.W.W.W.W.W.W.W.W.",
"W.W.W.W.W.W.W.W.W.W.W.W.W.W.W.W.W.W.W.W.W.W.W.W.W.W.W.W.W.W.W.W.W.W.W.W.W.W.W.W.W.W.W.W.W.W.W.W.W.W.W.W.W.W.W.W.W.W.W.W.W.W.W.W.",
"W.W.W.W.W.W.W.W.W.W.W.W.W.W.W.W.W.W.W.W.W.W.W.W.W.W.W.W.b g b b b b b W.W.W.W.W.W.W.W.W.W.W.W.W.W.W.W.W.W.W.W.W.W.W.W.W.W.W.W.W.",
"W.W.W.W.W.W.W.W.W.W.W.W.W.W.W.W.W.W.W.W.W.W.W.W.W.W.W.g b b b b b b b b W.W.W.W.W.W.W.W.W.W.W.W.W.W.W.W.W.W.W.W.W.W.W.W.W.W.W.W.",
"W.W.W.W.W.W.W.W.W.W.W.W.W.W.W.W.W.W.W.W.W.W.W.W.W.W.W.C C C R C C C C V W.W.W.W.W.W.W.W.W.W.W.W.W.W.W.W.W.W.W.W.W.W.W.W.W.W.W.W.",
"W.W.W.W.W.W.W.W.W.W.W.W.W.W.W.W.W.W.W.W.W.W.b g g g M :.k.k.k.k.k.k.k.*.b b b b W.W.W.W.W.W.W.W.W.W.W.W.W.W.W.W.W.W.W.W.W.W.W.W.",
"W.W.W.W.W.W.W.W.W.W.W.W.W.W.W.W.W.W.W.W.W.W.g b b n V >.k.g.g.k.g.k.k.*.b n b b W.W.W.W.W.W.W.W.W.W.W.W.W.W.W.W.W.W.W.W.W.W.W.W.",
"W.W.W.W.W.W.W.W.W.W.W.W.W.W.W.W.W.W.W.W.b b b b E k.k.k.k.K.K.K.K.b.k.k.k.>.b b b b W.W.W.W.W.W.W.W.W.W.W.W.W.W.W.W.W.W.W.W.W.W.",
"W.W.W.W.W.W.W.W.W.W.W.W.W.W.W.W.W.W.W.W.b b s b E k.k.k.k.K.K.K.K.b.k.k.k.>.b b b b W.W.W.W.W.W.W.W.W.W.W.W.W.W.W.W.W.W.W.W.W.W.",
"W.W.W.W.W.W.W.W.W.W.W.W.W.W.W.W.W.W.W.  M.K.b.k.*.b C v.K.K.K.K.K.K.K.r.b V h.h.J.H.+   W.W.W.W.W.W.W.W.W.W.W.W.W.W.W.W.W.W.W.W.",
"W.W.W.W.W.W.W.W.W.W.W.W.W.W.W.W.W.W.- - M.G.h.6.=.C =.m.K.K.K.K.K.K.K.f.C E ;.6.F.F.< , W.W.W.W.W.W.W.W.W.W.W.W.W.W.W.W.W.W.W.W.",
"W.W.W.W.W.W.W.W.W.W.W.W.W.W.W.W.    D y.l.l.D - S c.m.F.K.K.K.K.K.K.K.F.n.t.- - v.x.x.j.i   W.W.W.W.W.W.W.W.W.W.W.W.W.W.W.W.W.W.",
"W.W.W.W.W.W.W.W.W.W.W.W.W.W.W.W.    L K.l.k.j   Z G.K.K.K.K.K.K.K.K.K.K.K.x.    k.k.H.K.j     W.W.W.W.W.W.W.W.W.W.W.W.W.W.W.W.W.",
"W.W.W.W.W.W.W.W.W.W.W.W.W.W.W.W.    , K 4.7./ S 6.H.K.K.K.K.K.K.K.K.K.K.K.V.S S 7.7.H H =     W.W.W.W.W.W.W.W.W.W.W.W.W.W.W.W.W.",
"W.W.W.W.W.W.W.W.W.W.W.W.W.W.W.W.        J 3.9.k.B.K.K.H.K.K.K.K.K.K.K.H.K.G.k.k.3.3..         W.W.W.W.W.W.W.W.W.W.W.W.W.W.W.W.W.",
"W.W.W.W.W.W.W.W.W.W.W.W.W.W.W.W.W.  o O 3.5.e.k.l.S.F.G.K.H.H.K.K.H.K.G.S.A.k.k.5.5.* O .   W.W.W.W.W.W.W.W.W.W.W.W.W.W.W.W.W.W.",
"W.W.W.W.W.W.W.W.W.W.W.W.W.W.W.W.W.W.W.b e.k.k.k.k.k.l.S.K.H.H.H.K.H.H.A.k.k.k.k.k.k.n b W.W.W.W.W.W.W.W.W.W.W.W.W.W.W.W.W.W.W.W.",
"W.W.W.W.W.W.W.W.W.W.W.W.W.W.W.W.W.W.W.b w.k.k.k.k.k.k.v.v.b.l.l.b.+.+.s.k.k.k.k.k.k.n b W.W.W.W.W.W.W.W.W.W.W.W.W.W.W.W.W.W.W.W.",
"W.W.W.W.W.W.W.W.W.W.W.W.W.W.W.W.W.W.W.b e.k.k.k.k.k.k.k.k.k.k.k.k.X. .X.k.k.k.k.h.k.n s W.W.W.W.W.W.W.W.W.W.W.W.W.W.W.W.W.W.W.W.",
"W.W.W.W.W.W.W.W.W.W.W.W.W.W.W.W.W.W.W.b &.*.w.k.k.k.k.k.h.L.L.O.o... .X.k.k.k.k.=.*.n b W.W.W.W.W.W.W.W.W.W.W.W.W.W.W.W.W.W.W.W.",
"W.W.W.W.W.W.W.W.W.W.W.W.W.W.          W.b b ;.k.k.k.k.k.k.E.E.[  . . .X.k.k.k.k.b b W.W.          W.W.W.W.W.W.W.W.W.W.W.W.W.W.W.",
"W.W.W.W.W.W.W.W.W.W.W.W.W.- , > .     W.b b ;.k.k.k.k.c.c.U.U.]  ...X.o.k.k.k.k.s b W.W.    O , , W.W.W.W.W.W.W.W.W.W.W.W.W.W.W.",
"W.W.W.W.W.W.W.W.W.W.b b   z y.q.,     W.b b ;.d.k.k.c.Y.T.} {  . .X.a.d.k.k.k.k.b b W.W.    x x.6.    b b W.W.W.W.W.W.W.W.W.W.W.",
"W.W.W.W.W.W.W.W.W.W.b b   x F.B.i     W.b c ;.k.k.k.c.T.E. . . . .O.k.k.k.k.k.h.b b W.W.    D J.j.    g b W.W.W.W.W.W.W.W.W.W.W.",
"W.W.W.W.W.W.W.W.b C r.r.F 6.G.V.m : &   W.W.E #.( X.a.U.E. . . . .O.k.k.k.e.$.$.W.W.    * : %.H.V.H F r.,.n b W.W.W.W.W.W.W.W.W.",
"W.W.W.W.W.W.W.W.g @.H.H.k.b.J.C.$.g ;   W.W.b b T ) { I.E. . . . .a.k.k.k.9.b b W.W.    y b ,.K.F.k.k.J.z.b b W.W.W.W.W.W.W.W.W.",
"W.W.W.W.W.b b ,.F.G.K.K.H.A.g.v.A.F.K   W.W.s b T ) { I.E.R.R.]  . . ._ 3./ b b W.W.    0.F.Z.g.v.H.H.K.G.F.m.#.b W.W.W.W.W.W.W.",
"W.W.W.W.W.b b ,.K.K.K.K.H.S.g.g.F.K.L   W.W.n b T ) { I.E.E.E.X. . . ._ 3.^ b b W.W.    0.H.A.k.l.H.H.K.K.K.D.#.b b W.W.W.W.W.W.",
"W.W.W.b n 1.z.C.K.K.K.K.b.l.k.g.l.l.9./ n b C L ! ) { I.E.E.E.P.P.|  ._ 3./ ^ ~ b s ^ / e.v.l.k.k.v.l.K.K.K.G.m.z.;.b b W.W.W.W.",
"W.W.W.b N z.K.K.K.K.K.K.k.k.k.k.k.k.k.k.n b L %.` ) { I.E.E.E.E.E.u. ._ 3.3.3.3.b b e.k.k.k.k.k.k.k.k.K.K.K.K.K.J.<.b b W.W.W.W.",
"W.W.W.b N z.K.K.K.K.K.K.k.h.k.k.k.k.k.k.*.&.~ G W Q ! i.p.E.E.E.E.&.t A 3./ G G &./ i.k.k.k.k.k.k.k.k.K.K.K.K.K.J.<.b b W.W.W.W.",
"W.W.W.b N z.K.K.K.K.K.K.k.k.k.k.k.k.k.k.k.k.E b s b v Y  .E.E.E.E.h   < -.^ b b h.k.k.k.k.k.k.k.k.k.k.K.K.K.K.K.J.<.g b W.W.W.W.",
"W.W.W.@.=.n.K.K.J.J.S.F.k.k.k.k.k.k.k.k.k.h.*.C C C R Y Y I.I.I.I.f   < ^ ~ C C k.k.k.k.k.k.k.k.k.k.k.F.G.J.K.J.J.z.@.C W.W.W.W.",
"W.    D.J.K.K.K.K.F.k.k.k.k.k.k.k.k.k.k.k.k.k.k.k.g.>.V b  . . . .e   * s V k.k.k.k.k.k.k.k.k.k.k.k.k.k.b.G.K.K.H.H.K.y.  W.W.W.",
"W.    F.J.J.J.K.K.F.k.k.k.h.k.k.k.k.k.k.k.k.k.k.k.k.e.C b ' U  . .>   * n M k.k.k.k.k.k.k.k.k.k.k.k.k.k.b.G.K.K.H.H.K.t.  W.W.W.",
"W.    D.G.b.k.V.K.F.k.k.k.k.k.k.k.k.k.k.k.k.k.k.k.k.6.>   K.K.O   ^ k.k.k.h.k.k.k.k.k.k.k.k.k.k.k.k.k.k.v.H.G.l.k.N.K.y.  W.W.W.",
"W.    A.G.v.k.V.K.S.k.k.k.k.k.k.k.k.k.k.k.k.k.k.k.k.6.>   K.K.O   ^ k.k.k.k.k.k.k.k.k.k.k.k.k.k.k.k.k.k.b.H.G.v.k.N.K.y.  W.W.W.",
"W.    .   .   ; n C k.k.k.h.k.e.R b n n >.k.k.k.J . = y.F.K.K.O   ~ k.k.k.k.k.k.k.k.n b b b &.k.k.k.k.k.:.n s & .   . .   W.W.W.",
"W.            * b V k.k.k.k.k.e.C g b b e.k.k.k.J   - y.K.K.K.$   ^ k.k.k.k.k.k.k.k.n g b b $.k.k.k.k.k.;.n a o           W.W.W.",
"W.W.W.W.W.W.W.W.W.W.> > > p C C V W.b b M C C R u   - y.K.K.K.f u *.k.k.k.d.R C C C b b W.W.V C n > > > > W.W.W.W.W.W.W.W.W.W.W.",
"W.W.W.W.W.W.W.W.W.W.      & s b b W.s b b b b b :   - y.K.K.K.N g ;.k.k.k.>.b b b b b b W.W.W.s u         W.W.W.W.W.W.W.W.W.W.W.",
"W.W.W.W.W.W.W.W.W.W.W.W.W.& W.b b b V =.=.&.d ; j L 2.V.K.K.K.;.&.&.&.:.k.d.&.&.&.&.=.&.V b b W.W.W.W.W.W.W.W.W.W.W.W.W.W.W.W.W.",
"W.W.W.W.W.W.W.W.W.W.W.W.W.W.W.W.b g R k.k.k.p   Z H.K.K.K.K.K.l.k.E b &.k.k.k.k.k.k.k.k.E g b W.W.W.W.W.W.W.W.W.W.W.W.W.W.W.W.W.",
"W.W.W.W.W.W.W.W.W.W.W.W.W.W.W.W.b g C e.k.h.i   x A.F.G.K.K.K.l.k.E b E e.e.k.k.k.k.e.e.C b b W.W.W.W.W.W.W.W.W.W.W.W.W.W.W.W.W.",
"W.W.W.W.W.W.W.W.W.W.W.W.W.W.W.W.b b B 3.t.h.p   j k.l.S.K.K.K.g.k.E b F 3.4.k.k.k.k.4.3.m b b W.W.W.W.W.W.W.W.W.W.W.W.W.W.W.W.W.",
"W.W.W.W.W.W.W.W.W.W.W.W.W.W.W.W.b b m 3.8.k.j   j k.l.S.G.G.G.g.k.E b B 3.4.h.h.k.h.3.3.B b b W.W.W.W.W.W.W.W.W.W.W.W.W.W.W.W.W.",
"W.W.W.W.W.W.W.W.W.W.W.W.W.W.W.W.b b m 3.3.4.j   l h.k.k.k.k.k.k.k.k.d.9.3.3.3.3.3.3.3.3.m b b W.W.W.W.W.W.W.W.W.W.W.W.W.W.W.W.W.",
"W.W.W.W.W.W.W.W.W.W.W.W.W.W.W.W.b b m 3.3.3.p   j k.k.k.k.k.k.k.k.k.k.7.3.3.3.3.3.3.3.3.m b b W.W.W.W.W.W.W.W.W.W.W.W.W.W.W.W.W.",
"W.W.W.W.W.W.W.W.W.W.W.W.W.W.W.W.W.W.@   Z 3.<   j h.k.k.k.k.h.k.k.k.k.*.b n 3.3.3.3..   @ W.W.W.W.W.W.W.W.W.W.W.W.W.W.W.W.W.W.W.",
"W.W.W.W.W.W.W.W.W.W.W.W.W.W.W.W.W.0 4 X l H H H x 6.9.e.k.k.k.k.k.d.e.*.b n H H J H X X 4 w W.W.W.W.W.W.W.W.W.W.W.W.W.W.W.W.W.W.",
"W.W.W.W.W.W.W.W.W.W.W.W.W.W.W.W.P 0 5 2 1 % = % - > r 6.k.k.k.k.k.7.4.~ b a % % % % # # 9 P I W.W.W.W.W.W.W.W.W.W.W.W.W.W.W.W.W.",
"W.W.W.W.W.W.W.W.W.W.W.W.W.W.W.I I q 7 5 X       o & $ 3.k.k.k.k.k.5.2.J b u         4 7 w I I I W.W.W.W.W.W.W.W.W.W.W.W.W.W.W.W.",
"W.W.W.W.W.W.W.W.W.W.W.W.W.W.W.I I w 0 6 # @ @ @ 1 3 1 j x x x x x j r i k 3 @ @ @ @ 6 9 w I I I W.W.W.W.W.W.W.W.W.W.W.W.W.W.W.W.",
"W.W.W.W.W.W.W.W.W.W.W.W.W.W.W.I I P w 9 6 6 5 5 5 5 4                 @ 5 5 6 6 8 9 w P I I I I W.W.W.W.W.W.W.W.W.W.W.W.W.W.W.W.",
"W.W.W.W.W.W.W.W.W.W.W.W.W.W.W.I I I P q 9 8 7 6 6 6 4 X X X X X X X X @ 6 6 7 8 0 w P P I I I W.W.W.W.W.W.W.W.W.W.W.W.W.W.W.W.W.",
"W.W.W.W.W.W.W.W.W.W.W.W.W.W.W.W.W.I I P P w w w w 0 0 0 0 0 8 9 9 8 0 0 0 w w P P P I I I W.W.W.W.W.W.W.W.W.W.W.W.W.W.W.W.W.W.W.",
"W.W.W.W.W.W.W.W.W.W.W.W.W.W.W.W.W.W.I I I I P P P P w w q w q q w w w w P P P I I I I I I W.W.W.W.W.W.W.W.W.W.W.W.W.W.W.W.W.W.W.",
"W.W.W.W.W.W.W.W.W.W.W.W.W.W.W.W.W.W.W.W.W.W.I P I I I I I I I I I I I I I I I I I W.W.W.W.W.W.W.W.W.W.W.W.W.W.W.W.W.W.W.W.W.W.W.",
"W.W.W.W.W.W.W.W.W.W.W.W.W.W.W.W.W.W.W.W.W.W.W.W.W.W.W.W.W.W.W.W.W.W.W.W.W.W.W.W.W.W.W.W.W.W.W.W.W.W.W.W.W.W.W.W.W.W.W.W.W.W.W.W.",
"W.W.W.W.W.W.W.W.W.W.W.W.W.W.W.W.W.W.W.W.W.W.W.W.W.W.W.W.W.W.W.W.W.W.W.W.W.W.W.W.W.W.W.W.W.W.W.W.W.W.W.W.W.W.W.W.W.W.W.W.W.W.W.W.",
"W.W.W.W.W.W.W.W.W.W.W.W.W.W.W.W.W.W.W.W.W.W.W.W.W.W.W.W.W.W.W.W.W.W.W.W.W.W.W.W.W.W.W.W.W.W.W.W.W.W.W.W.W.W.W.W.W.W.W.W.W.W.W.W."
};
