/* XPM */
static char *result[] = {
/* columns rows colors chars-per-pixel */
"64 64 256 2 ",
"   c #6FC8A1",
".  c #6EC8A1",
"X  c #72CDA5",
"o  c #6DC7A0",
"O  c #6AC59D",
"+  c #6CC9A1",
"@  c #6FCAA2",
"#  c #71CCA4",
"$  c #70CBA3",
"%  c #51AB84",
"&  c #52AB84",
"*  c #6EC7A0",
"=  c #72CAA3",
"-  c #71C9A2",
";  c #6BC69E",
":  c #4EA981",
">  c #76CFA8",
",  c #52AD85",
"<  c #6CC49D",
"1  c #50AA82",
"2  c #50A881",
"3  c #6BC39C",
"4  c #73C9A3",
"5  c #76CCA5",
"6  c #6DC39D",
"7  c #72C8A2",
"8  c #74CAA4",
"9  c #70C6A0",
"0  c #71C7A1",
"q  c #74CCA5",
"w  c #92E7C1",
"e  c #6FC59E",
"r  c #90E8C1",
"t  c #73CBA4",
"y  c #8FE5BF",
"u  c #90E6C0",
"i  c #8EE6BF",
"p  c #6DC59E",
"a  c #83DBB5",
"s  c #53AE86",
"d  c #82DAB3",
"f  c #83DDB6",
"g  c #84DFB7",
"h  c #6FCCA3",
"j  c #51AF86",
"k  c #4AA87F",
"l  c #6BC8A0",
"z  c #4EAB82",
"x  c #80D8B1",
"c  c #6DCAA2",
"v  c #75CDA7",
"b  c #6CC29C",
"n  c #82D8B2",
"m  c #84DDB6",
"M  c #81D9B2",
"N  c #84D9B3",
"B  c #86DCB6",
"V  c #70CDA4",
"C  c #50AD85",
"Z  c #4BAB81",
"A  c #69C9A0",
"S  c #6CCBA2",
"D  c #49A87F",
"F  c #6BCAA1",
"G  c #50AF86",
"H  c #4FAC84",
"J  c #4DAD84",
"K  c #75CFA8",
"L  c #69C49C",
"P  c white",
"I  c #464646",
"U  c gray28",
"Y  c #484848",
"T  c #494949",
"R  c gray29",
"E  c #4B4B4B",
"W  c #4C4C4C",
"Q  c gray30",
"!  c #4E4E4E",
"~  c gray31",
"^  c #505050",
"/  c #515151",
"(  c gray32",
")  c #535353",
"_  c gray33",
"`  c #555555",
"'  c #565656",
"]  c gray34",
"[  c #585858",
"{  c gray35",
"}  c #5A5A5A",
"|  c #5B5B5B",
" . c gray36",
".. c #5D5D5D",
"X. c gray37",
"o. c #5F5F5F",
"O. c #606060",
"+. c gray38",
"@. c #626262",
"#. c gray39",
"$. c #646464",
"%. c #656565",
"&. c gray40",
"*. c #676767",
"=. c #686868",
"-. c DimGray",
";. c #6A6A6A",
":. c gray42",
">. c #6C6C6C",
",. c #6D6D6D",
"<. c gray43",
"1. c #6F6F6F",
"2. c gray44",
"3. c #717171",
"4. c #727272",
"5. c gray45",
"6. c #747474",
"7. c gray46",
"8. c #767676",
"9. c #777777",
"0. c gray47",
"q. c #797979",
"w. c gray48",
"e. c #7B7B7B",
"r. c #7C7C7C",
"t. c gray49",
"y. c #7E7E7E",
"u. c gray50",
"i. c #808080",
"p. c #818181",
"a. c gray51",
"s. c #838383",
"d. c #848484",
"f. c gray52",
"g. c #868686",
"h. c gray53",
"j. c #888888",
"k. c #898989",
"l. c gray54",
"z. c #8B8B8B",
"x. c gray55",
"c. c #8D8D8D",
"v. c #8E8E8E",
"b. c gray56",
"n. c #909090",
"m. c gray57",
"M. c #929292",
"N. c #939393",
"B. c gray58",
"V. c #959595",
"C. c gray59",
"Z. c #979797",
"A. c #989898",
"S. c gray60",
"D. c #9A9A9A",
"F. c #9B9B9B",
"G. c gray61",
"H. c #9D9D9D",
"J. c gray62",
"K. c #9F9F9F",
"L. c #A0A0A0",
"P. c gray63",
"I. c #A2A2A2",
"U. c gray64",
"Y. c #A4A4A4",
"T. c #A5A5A5",
"R. c gray65",
"E. c #A7A7A7",
"W. c gray66",
"Q. c #A9A9A9",
"!. c #AAAAAA",
"~. c gray67",
"^. c #ACACAC",
"/. c gray68",
"(. c #AEAEAE",
"). c #AFAFAF",
"_. c gray69",
"`. c #B1B1B1",
"'. c #B2B2B2",
"]. c gray70",
"[. c #B4B4B4",
"{. c gray71",
"}. c #B6B6B6",
"|. c #B7B7B7",
" X c gray72",
".X c #B9B9B9",
"XX c gray73",
"oX c #BBBBBB",
"OX c #BCBCBC",
"+X c gray74",
"@X c gray",
"#X c gray75",
"$X c #C0C0C0",
"%X c #C1C1C1",
"&X c gray76",
"*X c #C3C3C3",
"=X c gray77",
"-X c #C5C5C5",
";X c #C6C6C6",
":X c gray78",
">X c #C8C8C8",
",X c gray79",
"<X c #CACACA",
"1X c #CBCBCB",
"2X c gray80",
"3X c #CDCDCD",
"4X c #CECECE",
"5X c gray81",
"6X c #D0D0D0",
"7X c gray82",
"8X c #D2D2D2",
"9X c LightGray",
"0X c gray83",
"qX c #D5D5D5",
"wX c gray84",
"eX c #D7D7D7",
"rX c #D8D8D8",
"tX c gray85",
"yX c #DADADA",
"uX c gray86",
"iX c gainsboro",
"pX c #DDDDDD",
"aX c gray87",
"sX c #DFDFDF",
"dX c gray88",
"fX c #E1E1E1",
"gX c #E2E2E2",
"hX c gray89",
"jX c #E4E4E4",
"kX c gray90",
"lX c #E6E6E6",
"zX c #E7E7E7",
"xX c gray91",
"cX c #E9E9E9",
"vX c #EAEAEA",
"bX c gray92",
"nX c #ECECEC",
"mX c gray93",
"MX c #EEEEEE",
"NX c #EFEFEF",
"BX c gray94",
"VX c #F1F1F1",
"CX c gray95",
"ZX c #F3F3F3",
"AX c #F4F4F4",
"SX c gray96",
"DX c #F6F6F6",
"FX c gray97",
"GX c #F8F8F8",
"HX c #F9F9F9",
"JX c gray98",
"KX c #FBFBFB",
"LX c gray99",
"PX c #FDFDFD",
"IX c #FEFEFE",
"UX c white",
/* pixels */
"                          . . . . . . . . . . . .         . . .               . . . . . . X X o O O O + + + + + + + + + + + + + ",
"                          . . . . . . . . . . . .                             . . . . . . @ @ # $ . . . . . . . . . . . . . . . ",
"                          . . . . . . . . . . . .                             . . . . . . @ @ # $ . . . . . . . . . . . . . . . ",
"                          @ @ . . . . . . @ @ . .                             . . . . . . . . % @ @ @ . . . . . . . . . . . . . ",
"                          @ @ . . . . . . @ @ . .                             . . . . . . . . % @ @ @ . . . . . . . . . . . . . ",
"&     * * = =         - - . . o $ $ $ $ $ . . . ; * * * *     - -             . o % % $ $ @ @ : . @ @ & &     * =             . ",
"&     * * = =         - - . . o $ $ $ $ $ . . . ; * * * *     - -             . o % % $ $ @ @ : . @ @ & &     * =             . ",
"* > > * * = =             ; ; O # $ $ ; ; ; ; , ; - -     = =                 ; . o o % % . . . o : : * * > > * =               ",
"* * * < < - -             @ @ ; $ 1 1 $ $ @ @ 1 #     2 2     *           - - # @ @ @ o o . . @ . . . * * * * < -               ",
"= = = - - 3 3             * * $ . ; ; % % @ @ . @ 2 2 - - - -                 . # ; ; . . @ @ . @ o o = = = = - 3               ",
"= = = - - 3 3             * * $ . ; ; % % @ @ . @ 2 2 - - - -                 . # ; ; . . @ @ . @ o o = = = = - 3               ",
"4 5 5 6 6 7 7 7 8 9 9 0 0 * *   *                                             . @ . . . .       -     = = q q < - 7 7 8 8 9 9   ",
"4 5 5 6 6 7 7 7 8 9 9 0 0 * *   *                                             . @ . . . .       -     = = q q < - 7 7 8 8 9 9   ",
"9 9 9 4 4 w w 4 e 7 7 9 9                                                     . . . . . .             * * * * = r 4 4 e e 7 7 * ",
"9 9 9 4 4 w w 4 e 7 7 9 9                                                     . . . . . .             * * * * = r 4 4 e e 7 7 * ",
"w 8 8 7 7 w w 0 4 w w 7 7                                                     . . . . . .             r r t t - r 0 0 4 4 w w - ",
"9 y y 8 8 4 4 0 u 7 7 4 4                                                     . . . . . .             * * i i t = 0 0 u u 7 7 = ",
"0 0 0 0 0 0 0 7 7 7 7 7 7                                                     . . . . . .             0 0 0 0 0 0 7 7 7 7 7 7 - ",
"0 0 0 0 0 0 0 7 7 7 7 7 7                                                     . . . . . .             0 0 0 0 0 0 7 7 7 7 7 7 - ",
"0 0 0 0 0 0 0 0 0 0 0 0 0                                                     . . . . . .             0 0 0 0 0 0 0 0 0 0 0 0   ",
"0 0 0 0 0 0 0 0 0 0 0 0 0                                                     . . . . . .             0 0 0 0 0 0 0 0 0 0 0 0   ",
"0 0 0 0 0 0 0 0 0 0 0 0 0                                                     . . . . . .             0 0 0 0 0 0 0 0 0 0 0 0   ",
"0 0 0 0 0 0 0 0 0 0 0 0 0                                                     . . . . . .             0 0 0 0 0 0 0 0 0 0 0 0   ",
"0 0 0 0 0 0 0 0 0 0 0 0 0                                                     . . . . . .             0 0 0 0 0 0 0 0 0 0 0 0   ",
"0 0 0 0 0 0 0 0 0 0 0 0 0             = = - - * -     * * = = * = = = - - - - . o q q     * * * = - -             0 0 0 0 0 0   ",
"0 0 0 0 0 0 0 0 0 0 0 0 0             = = p p = - - - * * a a p p = = - - o o . $ . . s s o o # . $ $             0 0 0 0 0 0   ",
"0 0 0 0 0 0 0 0 0 0 0 0 0             = = p p = - - - * * a a p p = = - - o o . $ . . s s o o # . $ $             0 0 0 0 0 0   ",
"  0 0 0 0 0 0 0 0 0 0 0 0             - -       d - - p p f f X @ g g ; ; h h j + + + k k + + l z + + . . . .     0 0 0 0 0 0   ",
"  0 0 0 0 0 0 0 0 0 0 0 0             - -       d - - p p f f X @ g g ; ; h h j + + + k k + + l z + + . . . .     0 0 0 0 0 0   ",
"  0 0 0 0 7 7 0 0 0 0 0 0             p p * * -   x x = = . . . g o o ; ; ; ; $ % l l c c c c z + l l . . . .   - 0 0 0 0 0 0   ",
"  0 0 0 0 7 7 0 0 0 0 0 0             p p * * -   x x = = . . . g o o ; ; ; ; $ % l l c c c c z + l l . . . .   - 0 0 0 0 0 0   ",
"0 9 9 7 7 7 7 6 5 7 7 0 0                                                                 - -             * * - - = = v v     - ",
"b 4 4 6 6 0 0 n 6 e e 9 9                                                       0 0 0 0 0 0 0 0 0     3 3 = = <   m m p p p p * ",
"q M M * *     N 9 4 4 B B                                       . . . . . . . .                       q q M M *   a a - - = = d ",
"q M M * *     N 9 4 4 B B                                       . . . . . . . .                       q q M M *   a a - - = = d ",
"* < < d d * * e 0 n n 7 7                                       . . . . . . . . . . . . . . . . . . . * * < < d * * * q q a a < ",
"* < < d d * * e 0 n n 7 7                                       . . . . . . . . . . . . . . . . . . . * * < < d * * * q q a a < ",
"              0 0 0 0 0 0                                                     . .                                 0 0 0 0 0 0   ",
"              0 0 0 0 0 0                                                     . .                                 0 0 0 0 0 0   ",
"              0 0 0 0 0 0                                                     . .                                 0 0 0 0 0 0   ",
"                                                                                                                                ",
"                                                                                                                              . ",
"                                                                                                                              . ",
". $ $ o o . . o X ; ; . .                                                                       . . . . . $ $ o . o o X X ; ; + ",
". $ $ o o . . o X ; ; . .                                                                       . . . . . $ $ o . o o X X ; ; + ",
"$ + + V V l l C + h h + + . .                                                                   . . . $ $ + + V l C C + + h h + ",
"$ + + V V l l C + h h + + . .                                                                   . . . $ $ + + V l C C + + h h + ",
"+ Z Z A A S S D F F F j j . .                                                                     . . + + Z Z A S D D F F F F G ",
"l + + H H c c c l H H h h . .                                                                     . . l l F F J S S S A A J J h ",
". . . . . @ @ . . . . . . . . . . . . . . . . . .                             . . . . . . o o $ O @ @ + + + + + c + + + + + + + ",
". . . . . @ @ . . . . . . . . . . . . . . . . . .                             . . . . . . o o $ O @ @ + + + + + c + + + + + + + ",
". . . . . . . . . . . . . . . . . . . . . . . . .                             . . . . . . X X o O O O + + + + + + + + + + + + + ",
". . . . . . . . . . . . . . . . . . . . . . . . .                             . . . . . . X X o O O O + + + + + + + + + + + + + ",
"                          . . . . . . . . . . . .                             . . . . . . @ @ # $ . . . . . . . . . . . . . . . ",
"                          . . . . . . . . . . . .                             . . . . . . @ @ # $ . . . . . . . . . . . . . . . ",
"                          @ @ . . . . . . @ @ . .                             . . . . . . . . % @ @ @ . . . . . . . . . . . . . ",
"&     * * = =         - - . . o $ $ $ $ $ . . . ; * * * *     - -             . o % % $ $ @ @ : . @ @ % % . . o $ . . . . . . . ",
"* > > * * = =             ; ; O # $ $ ; ; ; ; , ; - -     = =                 ; . o o % % . . . o : : o o K K o $ . . . . . . . ",
"* > > * * = =             ; ; O # $ $ ; ; ; ; , ; - -     = =                 ; . o o % % . . . o : : o o K K o $ . . . . . . . ",
"* * * < < - -             @ @ ; $ 1 1 $ $ @ @ 1 #     2 2     *           - - # @ @ @ o o . . @ . . . o o o o O @ . . . . . . . ",
"* * * < < - -             @ @ ; $ 1 1 $ $ @ @ 1 #     2 2     *           - - # @ @ @ o o . . @ . . . o o o o O @ . . . . . . . ",
"= = = - - 3 3             * * $ . ; ; % % @ @ . @ 2 2 - - - -                 . # ; ; . . @ @ . @ o o $ $ $ $ @ L . . . . . . . ",
"= = = - - 3 3             * * $ . ; ; % % @ @ . @ 2 2 - - - -                 . # ; ; . . @ @ . @ o o $ $ $ $ @ L . . . . . . . ",
"4 5 5 6 6 7 7 7 8 9 9 0 0 * *   *                                               -               -     = = q q < - - - t t * * . "
};
