/* XPM */
static char *result[] = {
/* columns rows colors chars-per-pixel */
"64 42 200 2 ",
"   c #000101",
".  c #090605",
"X  c #0A0807",
"o  c #050E0F",
"O  c #0A0808",
"+  c #130302",
"@  c #1F0200",
"#  c #170806",
"$  c #1B0907",
"%  c #1D0A09",
"&  c #060E10",
"*  c #03161A",
"=  c #03181D",
"-  c #1D1C1F",
";  c #220202",
":  c #2B0000",
">  c #270B07",
",  c #2A110C",
"<  c #2A1816",
"1  c #311E1A",
"2  c #331214",
"3  c #33211D",
"4  c #051D22",
"5  c #00252D",
"6  c #03252A",
"7  c #18282B",
"8  c #1E3336",
"9  c #082E33",
"0  c #342726",
"q  c #212B32",
"w  c #213539",
"e  c #2A3B3E",
"r  c #273437",
"t  c #373739",
"y  c #36383B",
"u  c #393A3C",
"i  c #363638",
"p  c #471918",
"a  c #47241E",
"s  c #472826",
"d  c #422C30",
"f  c #5E3F3B",
"g  c #653533",
"h  c #003B46",
"j  c #253D47",
"k  c #3D3E41",
"l  c #00424D",
"z  c #1D494F",
"x  c #3F4145",
"c  c #38464B",
"v  c #2E4A54",
"b  c #3C5B67",
"n  c #2B5766",
"m  c #346578",
"M  c #3D616B",
"N  c #414244",
"B  c #47484A",
"V  c #4A4C51",
"C  c #4F5156",
"Z  c #4D565C",
"A  c #505257",
"S  c #774A48",
"D  c #505C64",
"F  c #416A77",
"G  c #92332E",
"H  c #823431",
"J  c #9B3E3A",
"K  c #B8342D",
"L  c #A43F38",
"P  c #CF3F33",
"I  c #E83A2F",
"U  c #99413A",
"Y  c #A8443C",
"T  c #B3433C",
"R  c #C4463E",
"E  c #D94137",
"W  c #EA4437",
"Q  c #F14A3D",
"!  c #FF453A",
"~  c #B7554C",
"^  c #BA5B54",
"/  c #A25E58",
"(  c #B5605A",
")  c #A5655D",
"_  c #946662",
"`  c #C94941",
"'  c #CC574C",
"]  c #CE5B53",
"[  c #D35A53",
"{  c #D65E59",
"}  c #D85247",
"|  c #E24F43",
" . c #F34F42",
".. c #F84E41",
"X. c #E75649",
"o. c #F55144",
"O. c #FD5345",
"+. c #FD5B4C",
"@. c #FB584D",
"#. c #EC5E53",
"$. c #E75E52",
"%. c #FD5F53",
"&. c #F65E52",
"*. c #CA6258",
"=. c #D36056",
"-. c #D6625B",
";. c #DA6257",
":. c #FF604F",
">. c #ED6255",
",. c #EF6559",
"<. c #F56256",
"1. c #FD6355",
"2. c #F5655A",
"3. c #FE6659",
"4. c #FF6B5C",
"5. c #FA6A59",
"6. c #DC6B62",
"7. c #CE766F",
"8. c #FA6E61",
"9. c #E87368",
"0. c #FF7162",
"q. c #FF7865",
"w. c #E56F65",
"e. c #3A7487",
"r. c #3F7E92",
"t. c #2B7C9B",
"y. c #417F94",
"u. c #3C8DA9",
"i. c #3587A2",
"p. c #3E92AC",
"a. c #3A99B7",
"s. c #4C8699",
"d. c #4B889C",
"f. c #51879A",
"g. c #52899B",
"h. c #5A889A",
"j. c #428EA4",
"k. c #518EA1",
"l. c #4593AC",
"z. c #4B94AB",
"x. c #4A9AAF",
"c. c #5491A6",
"v. c #5195AA",
"b. c #449BB5",
"n. c #4C9AB2",
"m. c #489EB9",
"M. c #509EB5",
"N. c #45A2BE",
"B. c #4FA1B8",
"V. c #50A2BB",
"C. c #68A6B2",
"Z. c #27B1DC",
"A. c #36BCE7",
"S. c #4CACC3",
"D. c #47A7C4",
"F. c #52ABC3",
"G. c #4AB2CF",
"H. c #59B8CC",
"J. c #4AB6D6",
"K. c #43B6DA",
"L. c #44B9DD",
"P. c #4DBBDD",
"I. c #4BB7D3",
"U. c #51B8D6",
"Y. c #51BCDB",
"T. c #50B3D0",
"R. c #62BFD5",
"E. c #46BFE5",
"W. c #4ABEE1",
"Q. c #39C7F2",
"!. c #2FCBF8",
"~. c #3CE4FF",
"^. c #4FC1D8",
"/. c #57C0D8",
"(. c #74C7D8",
"). c #4CC3E5",
"_. c #4DC6E9",
"`. c #49C6EA",
"'. c #55CDEE",
"]. c #55C4E2",
"[. c #4CCCF4",
"{. c #4CD3FB",
"}. c #45D1FB",
"|. c #59D3F4",
" X c #54D6FA",
".X c #54DBFD",
"XX c #56D3F6",
"oX c #60CDEA",
"OX c #61D1E0",
"+X c #5AE4FF",
"@X c #54ECFF",
"#X c #5BEBFF",
"$X c #57E5FF",
"%X c #59F2FF",
"&X c #66FFFF",
"*X c #64E8FE",
"=X c #9A8C8A",
"-X c #FF9B91",
";X c #AFEBFC",
":X c None",
/* pixels */
":X:X:X:X:X:X:X:X:X:X:X:X:X:X:X:X:X:X:X:X:X:X:X:X:X:X:X:X:X:X:X:X:X:X:X:X:X:X:X:X:X:X:X:X:X:X:X:X:X:X:X:X:X:X:X:X:X:X:X:X:X:X:X:X",
":X:X:X:X:X:X:X:X:X:X:X:X:X:X:X:X:X:X:X:X:X:X:X:X:X:X:X:X:X:X:X:X:X:X:X:X:X:X:X:X:X:X:X:X:X:X:X:X:X:X:X:X:X:X:X:X:X:X:X:X:X:X:X:X",
":X:X:X:X:X:X:X:X:X:X:X:X:X:X:X:X:X:X:X:X:X:X:X:X:X:X:X:X:X:X:X:X:X:X:X:X:X:X:X:X:X:X:X:X:X:X:X:X:X:X:X:X:X:X:X:X:X:X:X:X:X:X:X:X",
":X:X:X:X:X:X:X:X:X:X:X:X:X:X:X:X:X:X:X:X:X:X:X:X:X:X:X:X:X:X:X:X:X:X:X:X:X:X:X:X:X:X:X:X:X:X:X:X:X:X:X:X:X:X:X:X:X:X:X:X:X:X:X:X",
":X:X:X:X:X:X:X:X:X:X:X:X:X:X:X:X:X:X:X:X:X:X:X:X:X:X:X:X:X:X:X:X:X:X:X:X:X:X:X:X:X:X:X:X:X:X:X:X:X:X:X:X:X:X:X:X:X:X:X:X:X:X:X:X",
":X:X:X:X:X:X:X:X:X:X:X:X:X:X:X:X:X:X:X:X:X:X:X:X:X:X:X:X:X:X:X:X:X:X:X:X:X:X:X:X:X:X:X:X:X:X:X:X:X:X:X:X:X:X:X:X:X:X:X:X:X:X:X:X",
":X:X:X:X:X:X:X:X:X:X:X:X:X:X:X:X:X:X:X:X:X:X:X:X:X:X:X:X:X:X:X:X:X:X:X:X:X:X:X:X:X:X:X:X:X:X:X:X:X:X:X:X:X:X:X:X:X:X:X:X:X:X:X:X",
":X:X:X:X:X:X:X:X:X:X:X:X:X:X:X:X:X:X:X:X:X:X:X:X:X:X:X:X:X:X:X:X:X:X:X:X:X:X:X:X:X:X:X:X:X:X:X:X:X:X:X:X:X:X:X:X:X:X:X:X:X:X:X:X",
":X:X:X:XC.(.H.H.oX;X=Xu C C C C V x N V A C A C C C A A C A C C A C C C C A A C C C C C C C C V A A A A c :X-X8.w.w.7._ :X:X:X:X",
":X:X:XOX*XXXXX'..XV.3 .                                                                                 o e =.$.4.3.3.4.~ :X:X:X",
":X:X^.+XU./.XXx.r.z.3 .     = 6 4 4 = * * 4 4 4 4 4 4 = * * = o + > $ $ $ > $ $ > $ $ $ $ > $ $ $ +     o r ~ d ' 0.5.2.4.Y :X:X",
":XC.}.Y.XX.X$XP._.B.3 X     :X:X:X:X:X:X:X:X:X:X:X:X:X:X:X:X:X:X:X:X:X:X:X:X:X:X:X:X:X:X:X:X:X:X:X:X,   & e *.' >.] ^ <.2.o.7.:X",
":X].`. XI.M d..X#Xn.3 O   . :X:X:X:X:X:X:X:X:X:X:X:X:X:X:X:X:X:X:X:X:X:X:X:X:X:X:X:X:X:X:X:X:X:X:X:X%   & w =.q.:.c l X.0.O.9.:X",
"v.D. XJ.0 f a r.%Xn.1 O   . :X:X:X:X:X:X:X:X:X:X:X:X:X:X:X:X:X:X:X:X:X:X:X:X:X:X:X:X:X:X:X:X:X:X:X:X#   & w ;.*.( J H ^ / o.6.:X",
"c.N.@Xe.> D 0 i @XV.1 O   . :X:X:X:X:X:X:X:X:X:X:X:X:X:X:X:X:X:X:X:X:X:X:X:X:X:X:X:X:X:X:X:X:X:X:X:X#   & e } B h +.4.c l E 9.:X",
"c.B.'.Z.< , ; m @Xn.1 O   . :X:X:X:X:X:X:X:X:X:X:X:X:X:X:X:X:X:X:X:X:X:X:X:X:X:X:X:X:X:X:X:X:X:X:X:X#   o e ;.T G ( ( L g O.6.:X",
"c.N.`.`.i.7 n P..Xx.1 X   . :X:X:X:X:X:X:X:X:X:X:X:X:X:X:X:X:X:X:X:X:X:X:X:X:X:X:X:X:X:X:X:X:X:X:X:X#   o w =.0.+.c l | 0.o.-.:X",
"k.N.).U.).`.W.J. Xx.1 X   . :X:X:X:X:X:X:X:X:X:X:X:X:X:X:X:X:X:X:X:X:X:X:X:X:X:X:X:X:X:X:X:X:X:X:X:X#   o w ] 3.1.T G <.2.Q -.:X",
"g.N.).Y.P.U.W.P. Xn.1 O   . :X:X:X:X:X:X:X:X:X:X:X:X:X:X:X:X:X:X:X:X:X:X:X:X:X:X:X:X:X:X:X:X:X:X:X:X#   o w ] 3.>.4.4.<.,.Q -.:X",
"g.m.).#XS.: b #X$Xz.1 O   . :X:X:X:X:X:X:X:X:X:X:X:X:X:X:X:X:X:X:X:X:X:X:X:X:X:X:X:X:X:X:X:X:X:X:X:X#   o w ] 3.1.R Y :.5.Q =.:X",
"f.m.).H.S.q e./.|.n.1 O   . :X:X:X:X:X:X:X:X:X:X:X:X:X:X:X:X:X:X:X:X:X:X:X:X:X:X:X:X:X:X:X:X:X:X:X:X#   o w =.4.U z z g 1.o.[ :X",
"f.U.N.; b &X^.: F H.1 O   . :X:X:X:X:X:X:X:X:X:X:X:X:X:X:X:X:X:X:X:X:X:X:X:X:X:X:X:X:X:X:X:X:X:X:X:X#   o w ;.:.7 v Z 5 R O.[ :X",
"g.S.G.j r.R.F.z u.V.1 .   . :X:X:X:X:X:X:X:X:X:X:X:X:X:X:X:X:X:X:X:X:X:X:X:X:X:X:X:X:X:X:X:X:X:X:X:X%   o w [ 1.s 6 9 - | O.[ :X",
"f.b.).#XS.; v *X+Xl.1 O   . :X:X:X:X:X:X:X:X:X:X:X:X:X:X:X:X:X:X:X:X:X:X:X:X:X:X:X:X:X:X:X:X:X:X:X:X#   o w ] 3.E p 2 K %.Q [ :X",
"f.b.W.'.J.j l.+XXXz.1 O   . :X:X:X:X:X:X:X:X:X:X:X:X:X:X:X:X:X:X:X:X:X:X:X:X:X:X:X:X:X:X:X:X:X:X:X:X#   o w ] 1.@.! I X.#.Q [ :X",
"f.b.W.U.Y. XT.m.XXz.1 O   . :X:X:X:X:X:X:X:X:X:X:X:X:X:X:X:X:X:X:X:X:X:X:X:X:X:X:X:X:X:X:X:X:X:X:X:X#   o 8 [ 1.( [ @.X.>.Q [ :X",
"g.b.W.Y.P..X0 : +Xm.1 O   . :X:X:X:X:X:X:X:X:X:X:X:X:X:X:X:X:X:X:X:X:X:X:X:X:X:X:X:X:X:X:X:X:X:X:X:X#   o 8 $.w.5 B 3.#.>.Q [ :X",
"s.a.W.P.P.).l.y. Xl.1 O   . :X:X:X:X:X:X:X:X:X:X:X:X:X:X:X:X:X:X:X:X:X:X:X:X:X:X:X:X:X:X:X:X:X:X:X:X#   o 8 [ 1.S ~ 1.#.,.Q [ :X",
"d.a.E.W.P.J.[.{.[.l.1 O   . :X:X:X:X:X:X:X:X:X:X:X:X:X:X:X:X:X:X:X:X:X:X:X:X:X:X:X:X:X:X:X:X:X:X:X:X#   o 8 ] 3.3.1.#.#.>.Q { :X",
":Xp.A.W.K.W.K.G.}.l.1 O     :X:X:X:X:X:X:X:X:X:X:X:X:X:X:X:X:X:X:X:X:X:X:X:X:X:X:X:X:X:X:X:X:X:X:X:X>   o 8 ] 3.#.>.#.#.,.Q ] :X",
":Xh.Z.`.K.K.E.K.}.l.1 O     :X:X:X:X:X:X:X:X:X:X:X:X:X:X:X:X:X:X:X:X:X:X:X:X:X:X:X:X:X:X:X:X:X:X:X:X%   o 8 ' 3.#.#.#.#.2.I :X:X",
":X:Xi.!.`.E.A.K.}.u.1       & 4 = = = = = = = = = = = = = = = = % ; $ > % % % % > $ $ % # > $ % $ +     o q ] 1.#.#.#.8.I ` :X:X",
":X:X:Xt.A.Q.Q.Q.~.a., O                                                                                 & 6 ' 3.&.<.+.W K :X:X:X",
":X:X:X:Xm i.u.u.a.e.0 y y x d u u y y y y i u k N k k N N N N N x u k x u k N u i u y y y y y y k u y y y r T | ` R R :X:X:X:X:X",
":X:X:X:X:X:X:X:X:X:X:X:X:X:X:X:X:X:X:X:X:X:X:X:X:X:X:X:X:X:X:X:X:X:X:X:X:X:X:X:X:X:X:X:X:X:X:X:X:X:X:X:X:X:X:X:X:X:X:X:X:X:X:X:X",
":X:X:X:X:X:X:X:X:X:X:X:X:X:X:X:X:X:X:X:X:X:X:X:X:X:X:X:X:X:X:X:X:X:X:X:X:X:X:X:X:X:X:X:X:X:X:X:X:X:X:X:X:X:X:X:X:X:X:X:X:X:X:X:X",
":X:X:X:X:X:X:X:X:X:X:X:X:X:X:X:X:X:X:X:X:X:X:X:X:X:X:X:X:X:X:X:X:X:X:X:X:X:X:X:X:X:X:X:X:X:X:X:X:X:X:X:X:X:X:X:X:X:X:X:X:X:X:X:X",
":X:X:X:X:X:X:X:X:X:X:X:X:X:X:X:X:X:X:X:X:X:X:X:X:X:X:X:X:X:X:X:X:X:X:X:X:X:X:X:X:X:X:X:X:X:X:X:X:X:X:X:X:X:X:X:X:X:X:X:X:X:X:X:X",
":X:X:X:X:X:X:X:X:X:X:X:X:X:X:X:X:X:X:X:X:X:X:X:X:X:X:X:X:X:X:X:X:X:X:X:X:X:X:X:X:X:X:X:X:X:X:X:X:X:X:X:X:X:X:X:X:X:X:X:X:X:X:X:X",
":X:X:X:X:X:X:X:X:X:X:X:X:X:X:X:X:X:X:X:X:X:X:X:X:X:X:X:X:X:X:X:X:X:X:X:X:X:X:X:X:X:X:X:X:X:X:X:X:X:X:X:X:X:X:X:X:X:X:X:X:X:X:X:X",
":X:X:X:X:X:X:X:X:X:X:X:X:X:X:X:X:X:X:X:X:X:X:X:X:X:X:X:X:X:X:X:X:X:X:X:X:X:X:X:X:X:X:X:X:X:X:X:X:X:X:X:X:X:X:X:X:X:X:X:X:X:X:X:X",
":X:X:X:X:X:X:X:X:X:X:X:X:X:X:X:X:X:X:X:X:X:X:X:X:X:X:X:X:X:X:X:X:X:X:X:X:X:X:X:X:X:X:X:X:X:X:X:X:X:X:X:X:X:X:X:X:X:X:X:X:X:X:X:X"
};
