/* XPM */
static char *result[] = {
/* columns rows colors chars-per-pixel */
"64 64 236 2 ",
"   c #010101",
".  c #0B0502",
"X  c #0D0D0E",
"o  c #070909",
"O  c #130903",
"+  c #1C0D04",
"@  c #1E0E08",
"#  c #181716",
"$  c #0C0F12",
"%  c #220D06",
"&  c #271207",
"*  c #371A07",
"=  c #2C0F0E",
"-  c #352414",
";  c #2A2827",
":  c #24262A",
">  c #26282A",
",  c #2C2B2A",
"<  c #272525",
"1  c #312F2E",
"2  c #332921",
"3  c #33312F",
"4  c #363432",
"5  c #393635",
"6  c #3D3B39",
"7  c #3C3937",
"8  c #2B2F32",
"9  c #191B20",
"0  c #421E0F",
"q  c #411C00",
"w  c #4D1610",
"e  c #6E1211",
"r  c #472303",
"t  c #542C01",
"y  c #5B2D00",
"u  c #5D3302",
"i  c #492A11",
"p  c #532712",
"a  c #583813",
"s  c #4F3D17",
"d  c #622F03",
"f  c #643203",
"g  c #6A3304",
"h  c #64350A",
"j  c #663A0C",
"k  c #69370A",
"l  c #753A0A",
"z  c #7B3B0A",
"x  c #733706",
"c  c #642C15",
"v  c #682F16",
"b  c #6B3616",
"n  c #7C3A12",
"m  c #7D3D1C",
"M  c #763618",
"N  c #752E19",
"B  c #413E3D",
"V  c #473220",
"C  c #713C26",
"Z  c #5F4110",
"A  c #614102",
"S  c #684202",
"D  c #7B5809",
"F  c #6B4517",
"G  c #72461B",
"H  c #79451B",
"J  c #7B4E10",
"K  c #44413F",
"L  c #48413E",
"P  c #5A4137",
"I  c #774C22",
"U  c #785327",
"Y  c #7D5637",
"T  c #644F39",
"R  c #1E465A",
"E  c #1C585D",
"W  c #254456",
"Q  c #2B4957",
"!  c #254859",
"~  c #294958",
"^  c #264758",
"/  c #394952",
"(  c #38474D",
")  c #355362",
"_  c #365E69",
"`  c #285A66",
"'  c #34646D",
"]  c #39656A",
"[  c #3F7C7E",
"{  c #397177",
"}  c #386E73",
"|  c #444242",
" . c #564C4A",
".. c #484F51",
"X. c #785141",
"o. c #644F47",
"O. c #766C5A",
"+. c #497D7A",
"@. c #547170",
"#. c #697B72",
"$. c #920B18",
"%. c #B70A16",
"&. c #823E0D",
"*. c #8A3F0F",
"=. c #843C1D",
"-. c #8B3D1D",
";. c #833B15",
":. c #923E1C",
">. c #8F3F21",
",. c #BB182B",
"<. c #C31A1E",
"1. c #C10D1D",
"2. c #CE3C1D",
"3. c #CC291E",
"4. c #C30D21",
"5. c #CC0425",
"6. c #C01122",
"7. c #C51F2F",
"8. c #C82A30",
"9. c #84410E",
"0. c #8A420F",
"q. c #8C4112",
"w. c #89401E",
"e. c #934413",
"r. c #92411E",
"t. c #9D4819",
"y. c #9C4519",
"u. c #865911",
"i. c #A14B1B",
"p. c #AB4C1C",
"a. c #B14E1E",
"s. c #AD541D",
"d. c #86661E",
"f. c #916A11",
"g. c #A77C1F",
"h. c #8F4220",
"j. c #894F20",
"k. c #934121",
"l. c #9B4523",
"z. c #944C24",
"x. c #865939",
"c. c #9A5535",
"v. c #A34A24",
"b. c #AB4C23",
"n. c #A14722",
"m. c #B34E24",
"M. c #AE5126",
"N. c #B55123",
"B. c #BB5324",
"V. c #B8562A",
"C. c #AE5832",
"Z. c #91732F",
"A. c #A2623E",
"S. c #B16D30",
"D. c #DD6618",
"F. c #CD7313",
"G. c #E27316",
"H. c #C35526",
"J. c #CB5927",
"K. c #C65628",
"L. c #C65A2A",
"P. c #CA5929",
"I. c #C85626",
"U. c #D35D2B",
"Y. c #D55C28",
"T. c #C55D32",
"R. c #CC632A",
"E. c #D4632B",
"W. c #DC642D",
"Q. c #D8692D",
"!. c #C56A3C",
"~. c #D96732",
"^. c #D57633",
"/. c #E16C2F",
"(. c #E0672E",
"). c #E36C31",
"_. c #EA6E33",
"`. c #EC7134",
"'. c #E77234",
"]. c #F37536",
"[. c #FA7635",
"{. c #FC7936",
"}. c #F67738",
"|. c #F67939",
" X c #FA7939",
".X c #F77738",
"XX c #CC3C4A",
"oX c #976E48",
"OX c #A96746",
"+X c #B5704A",
"@X c #8E7D62",
"#X c #D04957",
"$X c #C97848",
"%X c #CD754D",
"&X c #F67E43",
"*X c #D76871",
"=X c #3E807F",
"-X c #47817E",
";X c #B38B29",
":X c #FCBB10",
">X c #F5AE10",
",X c #CF952E",
"<X c #FF823C",
"1X c #D2A62C",
"2X c #D8AA30",
"3X c #D6A119",
"4X c #FFC511",
"5X c #FDC30F",
"6X c #CD8A55",
"7X c #E7824F",
"8X c #CCA854",
"9X c #D7AB5B",
"0X c #DCAC4A",
"qX c #E3B744",
"wX c #C78B74",
"eX c #EAB866",
"rX c #F6D876",
"tX c #EFCF6F",
"yX c #E5C052",
"uX c #2B7B82",
"iX c #3C8182",
"pX c #28838C",
"aX c #408181",
"sX c #958985",
"dX c #AC968F",
"fX c #8B98A9",
"gX c #ACABB0",
"hX c #A1A3A3",
"jX c #D8A59F",
"kX c #8BAEC1",
"lX c #D4BBC9",
"zX c #DCDCFD",
"xX c #D6D1EC",
"cX c #DBE2FF",
"vX c #E4C6D1",
"bX c None",
/* pixels */
"bXbXbXbXbXbXbXbXbXbXbXbXbXbXbXbXbXbXbXbXbXbXbXbXbXbXbXbXbXbXbXbXbXbXbXbXbXbXbXbXbXbXbXbXbXbXbXbXbXbXbXbXbXbXbXbXbXbXbXbXbXbXbXbX",
"bXbXbXbXbXbXbXbXbXbXbXbXbXbXbXbXbXbXbXbXbXbXbXbXbXbXbXbXbXbXbXbXbXbXbXbXbXbXbXbXbXbXbXbXbXbXbXbXbXbXbXbXbXbXbXbXbXbXbXbXbXbXbXbX",
"bXbXbXbXbXbXbXbXbXbXbXbXbXbXbXbXbXbXbXbXbXbXbXbXbXbXbXbXbXbXbXbXbXbXbXbXbXbXbXbXbXbXbXbXbXbXbXbXbXbXbXbXbXbXbXbXbXbXbXbXbXbXbXbX",
"bXbXbXbXbXbXbXbXbXbXbXbXbXbXbXbXbXbXbXbXbXbXbXbXbXbXbXbXbXbXbXbXbXbXbXbXbXbXbXbXbXbXbXbXbXbXbXbXbXbXbXbXbXbXbXbXbXbXbXbXbXbXbXbX",
"bXbXbXbXbXbXbXbXbXbXbXbXbXbXbXbXbXbXbXbXbXbXbXbXbXbXf u f f d y bXbXbXbXbXbXbXbXbXbXbXbXbXbXbXbXbXbXbXbXbXbXbXbXbXbXbXbXbXbXbXbX",
"bXbXbXbXbXbXbXbXbXbXbXbXbXbXbXbXbXbXbXbXbXbXbXbXbXbXf f &.e.e.:.A.bXbXbXbXbXbXbXbXbXbXbXbXbXbXbXbXbXbXbXbXbXbXbXbXbXbXbXbXbXbXbX",
"bXbXbXbXbXbXbXbXbXbXbXbXbXbXbXbXbXbXbXbXbXbXbXbXbXbXy y p.W.U.W.e.y y y y bXbXbXbXbXbXbXbXbXbXbXbXbXbXbXbXbXbXbXbXbXbXbXbXbXbXbX",
"bXbXbXbXbXbXbXbXbXbXbXbXbXbXbXbXbXbXbXbXbXbXbXbXbXbXbXx.z.i.t.i.e.*.*.*.e.bXbXbXbXbXbXbXbXbXbXbXbXbXbXbXbXbXbXbXbXbXbXbXbXbXbXbX",
"bXbXbXbXbXbXbXbXbXbXbXbXbXbXbXbXbXbXbXbXbXbXbXbXbXbXbXbXY y u t e.J.J.U.B.k h h h d h bXbXbXbXbXbXbXbXbXbXbXbXbXbXbXbXbXbXbXbXbX",
"bXbXbXbXbXbXbXbXbXbXbXbXbXbXbXbXbXbXbXbXbXbXbXbXbXbXbXbXU y d y q.N.B.J.B.z x z z J h bXbXbXbXbXbXbXbXbXbXbXbXbXbXbXbXbXbXbXbXbX",
"bXbXbXbXbXbXbXbXbXbXbXbXbXbXbXbXbXbXbXbXbXbXh t .       * d t y y y z P.P.J.P.`. X{.'.G y y y bXbXbXbXbXbXbXbXbXbXbXbXbXbXbXbXbX",
"bXbXbXbXbXbXbXbXbXbXbXbXbXbXbXbXbXbXbXbXbXbXl t .   - * g 9.9.9.z x *.m.a.a.N.`. X{.{.i.9.9.9.bXbXbXbXbXbXbXbXbXbXbXbXbXbXbXbXbX",
"bXbXbXbXbXbXbX6.bXbXbXbXbXbXbXbXbXbXj f d g h.N     R.~.).`.'.'.R.B.i.g k g x Q. X|. X`./.).'.E.t F bXbXbXbXbXbXbXbXbXbXbXbXbXbX",
"bXbXbXbXbXbX*X7.8.bXbXbXbXbXbXbXbXx.M f g l k.m @ % E.'.Q./.`.].(.E.B.z z z 9.Q. X X|.{. X X XQ.l j.bXbXbXbXbXbXbXbXbXbXbXbXbXbX",
"bXbXbXbXbXbXbXbX7.6.#XbXbXbXbXU G H -.-.-.-.k.:.=.M l x x z N.J.).}.].'./.'./.|. X|.|.|.{.{.|.].'.~.j.G G G G G G G bXbXbXbXbXbX",
"bXbXbXbXbXbXbXbX*X%.XXbXbXbXbXj u n -.>.>.>.l.l.l.l.f u y g a.P._. X X X<X{. X{.|.{.{.|.|.|.|.{.|._.S t t t t t t t bXbXbXbXbXbX",
"bXbXbXbXbXbXbXbXbX1.XXbXbXbXbX;.;.w.:.>.k.N % & & & y M bXbXbXz z *.q.b.M.U.U.]..X X.X.X|.|. X X}.`.B.a.R.E.E.Q.E.Q.bXbXbXbXbXbX",
"bXbXbXbXbXbXbX6.1.1.XXbXbXbXf -.k.l.k.l.k.c         t I bXbXbXy y y h =.k.K.I._.{.[.{.[..X{.|. X|.].U.E.}.{. X X X<Xs.y Y bXbXbX",
"bXbXbXbXbXbXbX6.<.4.8.bXbXn M p 0 0 0 0 0 p h.m m H * V bXbXbXu k n -.b.m.L.P.~.).%XwX^.W.`. X X.X}.)./.}..X.X.X|. Xs.y x.bXbXbX",
"bXbXbXbXbX6.6.6.6.6.$.d g r.=.@           i <X|.<X{.  9 bXbXbXu n -.v.I.P.L.I.I.T.dXhX+XI.(. X{..X X X X.X.X X.X X<Xs.d x.bXbXbX",
"bXbXbXbXbX6.3.2.3.4.$.t r v c p * i r 0 - M ]._.E.R.% 2 bXbXbXr M n.b.I.P.~.U.I.T.dXgXdX*X%X$X!.(.).].}.}. X]._.`.<Xi.* T bXbXbX",
"bXbXbXbXbX4.D.:XG.5.$..     O V.&X{.{.{.{.`.I.B.g f y G bXbXbX  c I.I.K.P.}.[.U.T.lXzXzXzXkXW | :.l._. X X}.P.H.'.<Xw.  6 bXbXbX",
"bXbXbX#X7.2.G.5XF.$.e 0 - * p L.].%X$X$X!.!.I.m.r r g H bXbX    v P.I.K.U.].].W.~.jXlXxXzXaX`  .m.B._. X}.{.~.U./.{.m   6 bXbXbX",
"bXbXbX4.I.>X:X4Xf.  w ~.].`._.W.P.oX-X_ Q o.Y.b.O . =.-.l y +   c J.K.K.U.}. X&X`.~.U.lXcXkX[ #.[.].}..X X X}.[.(.(.c   5 bXbXbX",
"bXbXbX<.D.5X3X3XD & b ).].%X$XS.A.O.aX' W  .Y.n..   -.>.h q & @ N P.L.L.P.`.`.|.}.W.U.jXvXhX-X@X{. X.X}.]._.7X7XV.y.C bXbXbXbXbX",
"bXbXbX<.G.5Xu.o h {.).Y.L.#.-X+.+.+.iX' ^  .Y.p..   -.-.* . v =.b.P.P.I.J.J.U.`. X}.|.&X7X|.`.|.{..X X].Y.Y.dXhX|   bXbXbXbXbXbX",
"bXbXbX<.D.:XD   b <X`.L.S.+.iXiXaXuXuX_ W  .I.v.@ . =.=.* . v -.b.L.L.I.I.I.I.`.].|.|. X[.{.{..X}.}.].'.J.B.sXhX|   bXbXbXbXbXbX",
"bXbXbX4.,.3.e   b <X$X@.@.-XuX=X+.} ) Q Q Q /  .b.b.% O * t y d y.P.I.I.P.I.L.v.v.).{. X{.{.{.].J.H.*.g * % # < bXbXbXbXbXbXbXbX",
"bXbXbX6.4.4.e   b <X$X-XiXiX-XiX[ ' ~ ~ ~ ~ ^ / L.L..   q g d y e.I.L.I.L.P.L.r.k.~.{.|.}..X.X_.H.B.x r O       bXbXbXbXbXbXbXbX",
"bXbXbXbXbX= N N.L.W.OX+.iXiXaX=X+.' ~ ~ ^ ~ ^ Q  . .-.>.i.p.p.b.B.P.I.I.I.I.I.H.B.b.M.e.0.v 0 - * - bXbXbXbXbXbXbXbXbXbXbXbXbXbX",
"bXbXbXbXbX  =. X_.I.C.+.iX=X-XiXuX' Q ~ ^ ~ ~ ~ R ~ L.U.U.P.P.P.P.L.I.I.L.I.P.P.H.l.-.l k - o X $ ; bXbXbXbXbXbXbXbXbXbXbXbXbXbX",
"bXbXbXbXbX  m {.$XO.O.' ' ' ' [ -X' Q ~ ^ Q ^ Q ^ ~ X.X.X.Y C.P.J.I.L.I.I.L.L.^.^.u.H I bXbXbXbXbXbXbXbXbXbXbXbXbXbXbXbXbXbXbXbX",
"bXbXbXbXbX  m [.+XpX{ Q ^ W Q { uX' ~ ~ ~ ~ ! Q ~ ~ R ^ ^ W c.L.L.L.I.P.P.K.P.,X1XD Z bXbXbXbXbXbXbXbXbXbXbXbXbXbXbXbXbXbXbXbXbX",
"bXbXbXbXbX  m {.oXE ] bXbXbXbX{ @._ ~ ~ ~ ~ bXbXbXbX~ ~ .. .C.P.B.B.V.E.U.V.L.,X1XD F bXbXbXbXbXbXbXbXbXbXbXbXbXbXbXbXbXbXbXbXbX",
"bXbXbXbXbX  w.<Xz.o 8 bXbXbXbX) ^ ^ Q ~ ~ ) bXbXbXbX~ ~ x.K.L.I.b.>.N.|._.>.k.,X1XD Z bXbXbXbXbXbXbXbXbXbXbXbXbXbXbXbXbXbXbXbXbX",
"bXbXbXbXbX  p b.b % P bXbXbXbXbX) ) Q ) ) ] bXbXbXbXo.o.c.I.U.).M.n y._.).V.V.g.;Xg.Z.Z.bXbXbXbXbXbXbXbXbXbXbXbXbXbXbXbXbXbXbXbX",
"bXbXbXbXbX      0 :.A.bXbXbXbXbXbX@.R bXbXbXbXbXbXI V.L.P.P._. Xs.y z I.U.}.`.9.S 8XtXZ.U bXbXbXbXbXbXbXbXbXbXbXbXbXbXbXbXbXbXbX",
"bXbXbXbXbXo o   0 l.OXbXbXbXbXbXbXbX~ bXbXbXbXbXy g K.P.P.P._. Xs.f &.B.P..X].&.j 8XrXd.A bXbXbXbXbXbXbXbXbXbXbXbXbXbXbXbXbXbXbX",
"bXbXbXbXbXbXbXy q.U.b.I G b G bXbXbXbXbXbXbXh g >.>.K.K.). X.X X|.{.R.u x }.].&.h 8XrXd.A bXbXbXbXbXbXbXbXbXbXbXbXbXbXbXbXbXbXbX",
"bXbXbXbXbXbXbXy *.U.p.d d d U bXbXbXbXbXbXbXk x >.>.K.P._. X.X.X X{.E.f l '.'.&.j 8XrXd.A bXbXbXbXbXbXbXbXbXbXbXbXbXbXbXbXbXbXbX",
"bXbXbXbXbXbXbXy q.P.L.B.N.N.N.H h h g h h 9.B.N.H.V.P.P._. X.X.X|.{.].).R.J x ;.:.9XrXd.A bXbXbXbXbXbXbXbXbXbXbXbXbXbXbXbXbXbXbX",
"bXbXbXbXbXbXbXy e.U.I.P.J.J.H.x t y y y y z J.P.P.J.P.J._. X X X X|. X X'.f y ;.k.9XrXd.A bXbXbXbXbXbXbXbXbXbXbXbXbXbXbXbXbXbXbX",
"bXbXbXbXbXbXbXbXbXz e.K.J.P.I.m.p.p.p.p.p.N.J.L.n.n.I.P.U.E.`..X{.|. X X`.b.s.6X9XqXqXD A bXbXbXbXbXbXbXbXbXbXbXbXbXbXbXbXbXbXbX",
"bXbXbXbXbXbXbXbXbXy z I.U.P.P.P.I.J.P.I.I.P.J.B.k.k.P.P.I.P.`. X X X|. X}.J.P.eXrXqX2Xu.A bXbXbXbXbXbXbXbXbXbXbXbXbXbXbXbXbXbXbX",
"bXbXbXbXbXbXbXbXbXbXbXt.t.b.m.H.P.K.P.I.L.L.I.H.k.r.y.t.B.I.~.).'. X}. X].m.m.0XeX;Xg.d.bXbXbXbXbXbXbXbXbXbXbXbXbXbXbXbXbXbXbXbX",
"bXbXbXbXbXbXbXbXbXbXbXu y =.>.B.P.P.L.I.I.I.P.B.k.-.y y t.P.K.H.W..X X X`.-.-.,X1XD Z bXbXbXbXbXbXbXbXbXbXbXbXbXbXbXbXbXbXbXbXbX",
"bXbXbXbXbXbXbXbXbXbXbXbXbXn n *.e.e.e.t.b.N.P.I.b.b.* * ;.m.B.K.E.).~.L.V.n z f.f.Z.bXbXbXbXbXbXbXbXbXbXbXbXbXbXbXbXbXbXbXbXbXbX",
"bXbXbXbXbXbXbXbXbXbXbXbXbXd d g f f d ;.l.v.P.P.I.H.. . c l.B.I.J.P.B.l.w.g f S S 8 bXbXbXbXbXbXbXbXbXbXbXbXbXbXbXbXbXbXbXbXbXbX",
"bXbXbXbXbXbXbXbXbXbXbXbXbXbXl j a a a b -.:.s.a.N.s.% + i M M.L.I.I.T.c.x.r t a s : , bXbXbXbXbXbXbXbXbXbXbXbXbXbXbXbXbXbXbXbXbX",
"bXbXbXbXbXbXbXbXbXbXbXbXbXbXbXbX8 : : 2 g g g g g g y t & O r.P.P.I.%XhXsXO ; > : ; 1 5 bXbXbXbXbXbXbXbXbXbXbXbXbXbXbXbXbXbXbXbX",
"bXbXbXbXbXbXbXbXbXbXbXbXbXbXK B 3 ; ; 2 i i i i i i i i & # m M.m.m.OX#.B $ < ; ; ; , 6 K bXbXbXbXbXbXbXbXbXbXbXbXbXbXbXbXbXbXbX",
"bXbXbXbXbXbXbXbXbXbXbXbXbXK K K 5 3 ; ; ; ; > > > > > > , > # O . . .   o , ; ; ; ; 3 6 K K bXbXbXbXbXbXbXbXbXbXbXbXbXbXbXbXbXbX",
"bXbXbXbXbXbXbXbXbXbXbXbXbXK K K B 4 1 ; ; ; ; ; , , < , ; , # X X X X X # , ; ; ; ; 4 B K K bXbXbXbXbXbXbXbXbXbXbXbXbXbXbXbXbXbX",
"bXbXbXbXbXbXbXbXbXbXbXbXbXK K K K B 7 3 1 ; ; ; < , < , ; < , , , 1 , , , ; ; , 1 4 B B K K bXbXbXbXbXbXbXbXbXbXbXbXbXbXbXbXbXbX",
"bXbXbXbXbXbXbXbXbXbXbXbXbXbXK | K | B B 7 4 1 1 , , , , , , , ; , , 1 , 1 3 3 4 7 B B B | bXbXbXbXbXbXbXbXbXbXbXbXbXbXbXbXbXbXbX",
"bXbXbXbXbXbXbXbXbXbXbXbXbXbXbXK K K K B B B B 6 5 5 5 4 4 3 4 4 4 5 5 7 7 6 6 B B B K K bXbXbXbXbXbXbXbXbXbXbXbXbXbXbXbXbXbXbXbX",
"bXbXbXbXbXbXbXbXbXbXbXbXbXbXbXbXbXbXK K K | K B B K B B B B B B B B B | B L K K | bXbXbXbXbXbXbXbXbXbXbXbXbXbXbXbXbXbXbXbXbXbXbX",
"bXbXbXbXbXbXbXbXbXbXbXbXbXbXbXbXbXbXbXbXbXK K K K K | K | K K K B | | | K B bXbXbXbXbXbXbXbXbXbXbXbXbXbXbXbXbXbXbXbXbXbXbXbXbXbX",
"bXbXbXbXbXbXbXbXbXbXbXbXbXbXbXbXbXbXbXbXbXbXbXbXbXbXbXbXbXbXbXbXbXbXbXbXbXbXbXbXbXbXbXbXbXbXbXbXbXbXbXbXbXbXbXbXbXbXbXbXbXbXbXbX",
"bXbXbXbXbXbXbXbXbXbXbXbXbXbXbXbXbXbXbXbXbXbXbXbXbXbXbXbXbXbXbXbXbXbXbXbXbXbXbXbXbXbXbXbXbXbXbXbXbXbXbXbXbXbXbXbXbXbXbXbXbXbXbXbX",
"bXbXbXbXbXbXbXbXbXbXbXbXbXbXbXbXbXbXbXbXbXbXbXbXbXbXbXbXbXbXbXbXbXbXbXbXbXbXbXbXbXbXbXbXbXbXbXbXbXbXbXbXbXbXbXbXbXbXbXbXbXbXbXbX",
"bXbXbXbXbXbXbXbXbXbXbXbXbXbXbXbXbXbXbXbXbXbXbXbXbXbXbXbXbXbXbXbXbXbXbXbXbXbXbXbXbXbXbXbXbXbXbXbXbXbXbXbXbXbXbXbXbXbXbXbXbXbXbXbX",
"bXbXbXbXbXbXbXbXbXbXbXbXbXbXbXbXbXbXbXbXbXbXbXbXbXbXbXbXbXbXbXbXbXbXbXbXbXbXbXbXbXbXbXbXbXbXbXbXbXbXbXbXbXbXbXbXbXbXbXbXbXbXbXbX",
"bXbXbXbXbXbXbXbXbXbXbXbXbXbXbXbXbXbXbXbXbXbXbXbXbXbXbXbXbXbXbXbXbXbXbXbXbXbXbXbXbXbXbXbXbXbXbXbXbXbXbXbXbXbXbXbXbXbXbXbXbXbXbXbX"
};
