/* XPM */
static char *result[] = {
/* columns rows colors chars-per-pixel */
"51 51 224 2 ",
"   c #010101",
".  c #0C0402",
"X  c #0C0C0D",
"o  c #03080A",
"O  c #160902",
"+  c #1D160A",
"@  c #0C1011",
"#  c #171717",
"$  c #2A1308",
"%  c #351A00",
"&  c #391907",
"*  c #281F15",
"=  c #2E240A",
"-  c #30210F",
";  c #121D22",
":  c #152832",
">  c #172A35",
",  c #252628",
"<  c #2A2A2A",
"1  c #242524",
"2  c #302E2D",
"3  c #33312F",
"4  c #3B3A38",
"5  c #4C1F08",
"6  c #452808",
"7  c #562A00",
"8  c #5C2D00",
"9  c #532702",
"0  c #5E3001",
"q  c #4A2715",
"w  c #532411",
"e  c #5C2C14",
"r  c #5B2713",
"t  c #533812",
"y  c #612F00",
"u  c #6B2E0B",
"i  c #633202",
"p  c #6D3505",
"a  c #65390C",
"s  c #6A3609",
"d  c #74370C",
"f  c #77390B",
"g  c #642C15",
"h  c #6C3919",
"j  c #7E3A13",
"k  c #793718",
"l  c #433628",
"z  c #413E3E",
"x  c #453A33",
"c  c #703F2A",
"v  c #514112",
"b  c #744408",
"n  c #72451C",
"m  c #704D15",
"M  c #44413F",
"N  c #4B4039",
"B  c #5B493C",
"V  c #784B27",
"C  c #785129",
"Z  c #744331",
"A  c #795633",
"S  c #664833",
"D  c #1F3947",
"F  c #223E4B",
"G  c #13435C",
"H  c #274656",
"J  c #2C4755",
"K  c #2D4957",
"L  c #25485A",
"P  c #294959",
"I  c #294758",
"U  c #3F4040",
"Y  c #184D61",
"T  c #2B5562",
"R  c #345663",
"E  c #35656D",
"W  c #3C6D71",
"Q  c #3A767A",
"!  c #444241",
"~  c #41464A",
"^  c #494746",
"/  c #574D49",
"(  c #585551",
")  c #5F514C",
"_  c #65584B",
"`  c #775843",
"'  c #6F4D40",
"]  c #70625C",
"[  c #506977",
"{  c #526C79",
"}  c #447E7D",
"|  c #4A7E7A",
" . c #4D6B7B",
".. c #656869",
"X. c #833E0D",
"o. c #843B15",
"O. c #843B1B",
"+. c #8C3D1C",
"@. c #893A15",
"#. c #933C19",
"$. c #903A22",
"%. c #82520F",
"&. c #8A4417",
"*. c #9D4615",
"=. c #95411D",
"-. c #974517",
";. c #8C5C13",
":. c #80460D",
">. c #A34B1C",
",. c #AB4C1C",
"<. c #A2471B",
"1. c #A7521C",
"2. c #B14F1F",
"3. c #916A1E",
"4. c #A06F18",
"5. c #8C482B",
"6. c #944222",
"7. c #994321",
"8. c #954A27",
"9. c #965328",
"0. c #824C31",
"q. c #835E3A",
"w. c #8A533D",
"e. c #965335",
"r. c #A44A22",
"t. c #AB4D22",
"y. c #B44E25",
"u. c #A65329",
"i. c #B55123",
"p. c #BB5324",
"a. c #BE5B24",
"s. c #BA5829",
"d. c #BB5E34",
"f. c #A25F33",
"g. c #87623D",
"h. c #9E6C31",
"j. c #AB6B2D",
"k. c #C25626",
"l. c #C35D25",
"z. c #C35C2C",
"x. c #CB5A29",
"c. c #C85726",
"v. c #D35D2B",
"b. c #DA5723",
"n. c #CC632C",
"m. c #D5622D",
"M. c #DD662E",
"N. c #D7692C",
"B. c #CE6733",
"V. c #DD6A31",
"C. c #D76531",
"Z. c #D7763E",
"A. c #E36E2F",
"S. c #E2652D",
"D. c #E46C32",
"F. c #E96F34",
"G. c #ED7235",
"H. c #EB763B",
"J. c #F37536",
"K. c #FC7735",
"L. c #FE7935",
"P. c #F57738",
"I. c #F97938",
"U. c #F67839",
"Y. c #F56C2A",
"T. c #9B5B41",
"R. c #8A6543",
"E. c #826D56",
"W. c #967B5D",
"Q. c #A46443",
"!. c #A66B48",
"~. c #B36C48",
"^. c #A27664",
"/. c #D16E40",
"(. c #D27B49",
"). c #FB7F43",
"_. c #B78929",
"`. c #B68D28",
"'. c #C8962A",
"]. c #D59C2F",
"[. c #FF803D",
"{. c #D6A52D",
"}. c #D8A72E",
"|. c #D7A92F",
" X c #D9A82F",
".X c #DBAB32",
"XX c #DAA530",
"oX c #DEB13D",
"OX c #CFA02A",
"+X c #E2B133",
"@X c #E0AE32",
"#X c #B28674",
"$X c #A2867C",
"%X c #FD8248",
"&X c #DFB341",
"*X c #E3BA4B",
"=X c #E6BA42",
"-X c #E5BE53",
";X c #CD8160",
":X c #F19674",
">X c #E6C056",
",X c #E9C45B",
"<X c #EDCB69",
"1X c #ECC862",
"2X c #F1D172",
"3X c #EFD06F",
"4X c #337D81",
"5X c #3D8283",
"6X c #378386",
"7X c #418281",
"8X c #9C9C9C",
"9X c #A48B81",
"0X c #A7A8A7",
"qX c #B0B3B3",
"wX c #D1A9A3",
"eX c #E1BABC",
"rX c #E7B1A6",
"tX c #EBA692",
"yX c #98B7D0",
"uX c #BBCBE9",
"iX c #E6C4CB",
"pX c #DACDE2",
"aX c #D4C4D3",
"sX c None",
/* pixels */
"sXsXsXsXsXsXsXsXsXsXsXsXsXsXsXsXsXsXsXsXsXsXsXsXsXsXsXsXsXsXsXsXsXsXsXsXsXsXsXsXsXsXsXsXsXsXsXsXsXsXsX",
"sXsXsXsXsXsXsXsXsXsXsXsXsXsXsXsXsXsXsXsXsXsXsXsXsXsXsXsXsXsXsXsXsXsXsXsXsXsXsXsXsXsXsXsXsXsXsXsXsXsXsX",
"sXsXsXsXsXsXsXsXsXsXsXsXsXsXsXsXsXsXsXsXsXsXsXsXsXsXsXsXsXsXsXsXsXsXsXsXsXsXsXsXsXsXsXsXsXsXsXsXsXsXsX",
"sXsXsXsXsXsXsXsXsXsXsXsXsXsXsXsXsXsXsXsXsXsXsXsXsXsXsXsXsXsXsXsXsXsXsXsXsXsXsXsXsXsXsXsXsXsXsXsXsXsXsX",
"sXsXsXsXsXsXsXsXsXsXsXsXsXsXsXsXsXsXsXn sXsXsXsXsXsXsXsXsXsXsXV sXsXsXsXsXsXsXsXsXsXsXsXsXsXsXsXsXsXsX",
"sXsXsXsXsXsXsXsXsXsXsXsXsXsXsXsXsXsXsXn sXsXsXsXsXsXsXsXsXsXg.n sXsXsXsXsXsXsXsXsXsXsXsXsXsXsXsXsXsXsX",
"sXsXsXsXsXsXsXsXsXsXsXsXsXsXsXsXsXt A.V.m sXsXsXsXsXsXsXsXm a.G.p g.sXsXsXsXsXsXsXsXsXsXsXsXsXsXsXsXsX",
"sXsXsXsXsXsXsXsXsXsXsXsXsXsXsXsX` % V.A.8 sXsXsXsXsXsXsXsXi a.P.& S sXsXsXsXsXsXsXsXsXsXsXsXsXsXsXsXsX",
"sXsXsXsXsXsXsXsXsXsXsXsXsXsXsXsX!   n.A.8 sXsXsXsXsXsXsXsXs a.J.  < sXsXsXsXsXsXsXsXsXsXsXsXsXsXsXsXsX",
"sXsXsXsXsXsXsXsXsXsXsXsXsXsXsXsXF   C.A.8 i sXsXsXsXsXsXk i a.J.  , sXsXsXsXsXsXsXsXsXsXsXsXsXsXsXsXsX",
"sXsXsXsXsXsXsXsXsXsXsXsXsXsXsXsXN . B.D.i f +.6.7.6.6.+.b p a.P.  , sXsXsXsXsXsXsXsXsXsXsXsXsXsXsXsXsX",
"sXsXsXsXsXsXsXsXsXsXsXsXsXsXsXsXz   n.J.l.1.s s.C.C.s.s -.n.A.H.  , sXsXsXsXsXsXsXsXsXsXsXsXsXsXsXsXsX",
"sXsXsXsXsXsXsXsXsXsXsXsXsXsXsXsX!   n.I.[.n.0 N.I.I.N.i 1.I.I.G.  , sXsXsXsXsXsXsXsXsXsXsXsXsXsXsXsXsX",
"sXsXsXsXsXsXsXsXsXsXsXsXsXsXsXsX4   r.v.I.C.d V.I.I.V.d a.I.D.p.  , sXsXsXsXsXsXsXsXsXsXsXsXsXsXsXsXsX",
"sXsXsXsXsXsXsXsXsXsXsXsXsXsXsXsXN . t.v.I.V.j D.I.I.D.j z.I.M.p.O l sXsXsXsXsXsXsXsXsXsXsXsXsXsXsXsXsX",
"sXsXsXsXsXsXsXsXsXsXsXa i 0 R.sXq.7 i.m.I.D.t.J.I.I.G.*.m.I.M.k.8 C sXsXi i a sXsXsXsXsXsXsXsXsXsXsXsX",
"sXsXsXsXsXsXsXsXA V V 9.*.8 g.sXq.7 =.t.I.G.A.J.I.U.J.A.J.P.x.-.8 C sXsXi &.>.g.R.R.sXsXsXsXsXsXsXsXsX",
"sXsXsXsXsXsXsXsX0 8 i <.x.0 R.sXg.8 8 o.[.I.L.I.U.I.U.I.I.P.s.s 8 C sXsXy 2.p.8 7 8 sXsXsXsXsXsXsXsXsX",
"sXsXsXsXsXsXsX&.p.<.+.y.z.i 7 sXh o.C.G.I.P.I.P.U.U.I.L.I.U.G.D.O.k sX6 i 2.k.+.=.p.&.5 sXsXsXsXsXsXsX",
"sXsXsXsXsXsXs &.d.e.5.u.p.i &   w z.I.I.I.P.I.I.L.U.U.U.U.I.I.I.m.k   % i ,.p.Z e.d.X.p sXsXsXsXsXsXsX",
"sXsXsXsXa 0 c.Q.7X5X} ` #.i 6   k Y.rXtXK.K.P.I.P.I.I.I.I.I.:XeXL.=.  % 0 o.5.5X5X6XQ.b.s g.sXsXsXsXsX",
"sXsXsXsXf X.f.E.} 5X} ( c f 5   k Y.eXaXZ.J.I.I.I.I.P.I.U.(.wXpXL.r.  & d Z ' 7X7X5XE.!.b 9.sXsXsXsXsX",
"sXsXsXi ,.x.| 5X7X7XQ E J 6.g   6.L.rXuXQ $XY.I.I.P.I.L.~.7XyXiXI.z.  w 6.U T Q 7X7XQ 6Xz.y.0 sXsXsXsX",
"sXsXsXi >.c.| 5X7XW T P J 6.g   8.I.%X;XY ( N.Y.I.I.).D.` T ^.).I.n.  w 7.~ L T E 7X7X6Xd.t.8 sXsXsXsX",
"sXsXsX0 ,.x.| 7X7XE H P J =.g   8.%XL.B.G / c.F.I.I.J.v.S F T.).I.n.  r 7.~ I H R 7X7X5Xz.2.8 sXsXsXsX",
"sXa &.k.r.6.} Q P P P P P K ^ +.f i D.P.H.G.P.P.I.P.I.I.U.).U.G.p d +.x K K P I P P Q 7X5.<.k.9.C sXsX",
"sX0 &.x.5.Z W E I I P P P P U Z e % n.J.U.I.I.I.I.P.P.I.I.I.G.D.6 9 Z ^ L P I L P P E 4XS 5.v.*.8 sXsX",
"sX0 X.x.) P P P P P I P P P P T ;   t.M.I.U.I.P.P.I.P.L.I.I.S.s.  @ K K P I P I P P P P I / v.*.y sXsX",
"sXi p *.sX .[ [ { R P P P L H : q e g O.[.H.D.J.I.L.J.A.G.P.r.g r q : D P P L I R { { [  .] *.X.0 sXsX",
"sXi i i sXsXsXsXsXsXP P P P >   k D.$ $ U.D.z.F.I.P.F.n.C.G.e . v.r.  > P P P P sXsXsXsXsXsXa 8 i sXsX",
"sXsXsXsXsXsXsXsXsXsXsXsXsXsXsX% >.P.+.k -.f.#X/.M.M.(.#X!.*.O.k G.a.& sXsXsXsXsXsXsXsXsXsXsXsXsXsXsXsX",
"sXsXsXsXsXsXsXsXsXsXsXsXsXsXsXi n.I.m.i.0 A 8Xd.p.p.d.8X] i >.v.L.N.p sXsXsXsXsXsXsXsXsXsXsXsXsXsXsXsX",
"sXsXsXsXsXsXsXsXsXsXsXsXsX  q L.S.v.p p +X4.7 O     O 9 ;.|.;.i x.M.I.h o sXsXsXsXsXsXsXsXsXsXsXsXsXsX",
"sXsXsXsXsXsXsXsXsXsXsXsXsX  q G.c.,.:.;.+X_.b 6 = = = b 4.oX4.b ,.s.I.g o sXsXsXsXsXsXsXsXsXsXsXsXsXsX",
"sXsXsXsXsXsXsXsXsXsXsXsXX   & v.X.5 '.oX2X,XXX|. X X.X}.*X3X*XOX8 f v.r o sXsXsXsXsXsXsXsXsXsXsXsXsXsX",
"sXsXsXsXsXsXsXsXsXsXsX< . g o.&.j u '.oX2X3X>X>X>X>X>X>X1X3X*X].f d &.k k sXsXsXsXsXsXsXsXsXsXsXsXsXsX",
"sXsXsXsXsXsXsXsXsXsXsX< . v.,.8 o.$.'.oX3X3X2X2X3X3X2X2X2X3X*X{.$.O.7 *.m.$ o sXsXsXsXsXsXsXsXsXsXsXsX",
"sXsXsXsXsXsXsXsXsXsXsX< . 7.r.,.y.p.]..X&X-X2X3X3X3X2X2X,XoX@X.Xp.p.,.k.x.& o sXsXsXsXsXsXsXsXsXsXsXsX",
"sXsXsXsXsXsXsXsXsXsXsXsX. O.6.x.x.c._.'.}.&X<X<X<X<X<X<X*X{.'.`.x.c.x.k.k.$ . sXsXsXsXsXsXsXsXsXsXsXsX",
"sXsXsXsXsXsXsXsXsXsXsXsXsX  & c.x.v.+ + +X.X}.}..X.X X X@X Xv   x.x.x.y.6.O   sXsXsXsXsXsXsXsXsXsXsXsX",
"sXsXsXsXsXsXsXsXsXsXsXsXsXo q y.i.s.5 q 4._. X XXXXX X.X`.3.t & y.y.y.O.e x sXsXsXsXsXsXsXsXsXsXsXsXsX",
"sXsXsXsXsXsXsXsXsXsXsXsXsX  $ O.$.6.7.+.. l oXXX.X.X.X+Xm   r #.6.6.$.& o sXsXsXsXsXsXsXsXsXsXsXsXsXsX",
"sXsXsXsXsXsXsXsXsXsXsXsXsX  + w.8.+.e.w.  4 ;.%.%.%.%.%.= X _ $X6.w.9Xx . ( sXsXsXsXsXsXsXsXsXsXsXsXsX",
"sXsXsXsXsXsXsXsXsXsXsXsXsXX # 0X^.#.$X8X  * 8 8 8 8 8 i %   ..qX7.e.qX~   ( sXsXsXsXsXsXsXsXsXsXsXsXsX",
"sXsXsXsXsXsXsXsXsXsXsXsX! 4 , ^ l & x ! 1 x B B _ _ _ _ _ ! 1 @ O X @ , 4 ^ z sXsXsXsXsXsXsXsXsXsXsXsX",
"sXsXsXsXsXsXsXsXsXsXsXsXsXM / 1 X X   # M M M M z z M M M ^ z @ X X @ x ^ ! sXsXsXsXsXsXsXsXsXsXsXsXsX",
"sXsXsXsXsXsXsXsXsXsXsXsXsXM z ! 4 M 3 M M M M M M M M M M M ! M 2 2 2 ^ ! ! sXsXsXsXsXsXsXsXsXsXsXsXsX",
"sXsXsXsXsXsXsXsXsXsXsXsXsXsXM M M M M M M M M M M M M M M M M M M ^ ! z ! sXsXsXsXsXsXsXsXsXsXsXsXsXsX",
"sXsXsXsXsXsXsXsXsXsXsXsXsXsXsXsXsXM M M M M M M M M M M M M M M M M sXsXsXsXsXsXsXsXsXsXsXsXsXsXsXsXsX",
"sXsXsXsXsXsXsXsXsXsXsXsXsXsXsXsXsXsXsXsXM M M M M M M M M M M sXsXsXsXsXsXsXsXsXsXsXsXsXsXsXsXsXsXsXsX",
"sXsXsXsXsXsXsXsXsXsXsXsXsXsXsXsXsXsXsXsXsXsXsXsXsXsXsXsXsXsXsXsXsXsXsXsXsXsXsXsXsXsXsXsXsXsXsXsXsXsXsX"
};
