/* XPM */
static char *result[] = {
/* columns rows colors chars-per-pixel */
"64 64 146 2 ",
"   c #000000",
".  c #0E060E",
"X  c #0C0A0C",
"o  c #110711",
"O  c #130C13",
"+  c #1D0C1D",
"@  c #181517",
"#  c #1D141C",
"$  c #20191F",
"%  c #210E21",
"&  c #251025",
"*  c #251C24",
"=  c #281F26",
"-  c #2D132D",
";  c #2C1D2C",
":  c #331633",
">  c #351835",
",  c #3B1A3B",
"<  c #272024",
"1  c #2C222B",
"2  c #31262F",
"3  c #332532",
"4  c #342B33",
"5  c #3A2D37",
"6  c #3D243D",
"7  c #3A2C38",
"8  c #373434",
"9  c #393236",
"0  c #3D353B",
"q  c #3E3A3B",
"w  c #40293F",
"e  c #40353E",
"r  c #403A3D",
"t  c #441E44",
"y  c #452644",
"u  c #412B41",
"i  c #4D234D",
"p  c #4E294E",
"a  c #453442",
"s  c #483347",
"d  c #443C41",
"f  c #4A3947",
"g  c #4A3549",
"h  c #4E3B4B",
"j  c #503D4D",
"k  c #532553",
"l  c #512851",
"z  c #582957",
"x  c #5A275A",
"c  c #5B2B5B",
"v  c #553055",
"b  c #5F325F",
"n  c #5A3F58",
"m  c #652D65",
"M  c #6A2E6A",
"N  c #603460",
"B  c #613E61",
"V  c #683668",
"C  c #6E396D",
"Z  c #733373",
"A  c #7B367B",
"S  c #7E3C7E",
"D  c #434040",
"F  c #4A4646",
"G  c #4E4A4A",
"H  c #524E4E",
"J  c #554151",
"K  c #594555",
"L  c #5E455B",
"P  c #5D4A5A",
"I  c #614A5D",
"U  c #644563",
"Y  c #664E62",
"T  c #6A486A",
"R  c #675063",
"E  c #6A5266",
"W  c #6E5569",
"Q  c #70556C",
"!  c #72596E",
"~  c #774F77",
"^  c #765473",
"/  c #775B72",
"(  c #795C75",
")  c #7B547A",
"_  c #7D5F78",
"`  c #7F607A",
"'  c #82637D",
"]  c #803880",
"[  c #864286",
"{  c #844B84",
"}  c #894589",
"|  c #8C4B8C",
" . c #904D8F",
".. c #825682",
"X. c #8E578D",
"o. c #8F5E8F",
"O. c #904E90",
"+. c #955595",
"@. c #9B5E9B",
"#. c #876782",
"$. c #886883",
"%. c #8D608C",
"&. c #8E6C88",
"*. c #916E8C",
"=. c #95718F",
"-. c #936293",
";. c #996C97",
":. c #9E629E",
">. c #9D6D9B",
",. c #967291",
"<. c #9A7593",
"1. c #9F739C",
"2. c #9F7999",
"3. c #A47D9D",
"4. c #A166A0",
"5. c #A46CA4",
"6. c #A86FA5",
"7. c #A672A4",
"8. c #A972A7",
"9. c #A77FA0",
"0. c #A971A9",
"q. c #AF78AD",
"w. c #B07AAE",
"e. c #B47FB1",
"r. c #AB83A5",
"t. c #AF86A9",
"y. c #B286AC",
"u. c #B48AAD",
"i. c #B682B3",
"p. c #B985B4",
"a. c #B78AB0",
"s. c #BA8DB4",
"d. c #BE8CB8",
"f. c #BD91B6",
"g. c #BF91B8",
"h. c #C18FBA",
"j. c #C595BD",
"k. c #C798BF",
"l. c #C797C0",
"z. c #C897C0",
"x. c #C898C0",
"c. c #CEA1C7",
"v. c #CFA1C8",
"b. c #D5A5CD",
"n. c #D8A8D0",
"m. c None",
/* pixels */
"m.m.m.m.m.m.m.m.m.m.m.m.m.m.m.m.m.m.m.m.m.m.m.m.m.m.m.m.m.m.m.m.m.m.m.m.m.m.m.m.m.m.m.m.m.m.m.m.m.m.m.m.m.m.m.m.m.m.m.m.m.m.m.m.",
"m.m.m.m.m.m.m.m.m.m.m.m.m.m.m.m.m.m.m.m.m.m.m.m.m.m.m.m.m.m.m.m.m.m.m.m.m.m.m.m.m.m.m.m.m.m.m.m.m.m.m.m.m.m.m.m.m.m.m.m.m.m.m.m.",
"m.m.m.m.m.m.m.m.m.m.m.m.m.m.m.m.m.m.m.m.m.m.m.m.m.m.m.m.m.m.m.m.m.m.m.m.m.m.m.m.m.m.m.m.m.m.m.m.m.m.m.m.m.m.m.m.m.m.m.m.m.m.m.m.",
"m.m.m.m.m.m.m.m.m.m.m.m.m.m.m.m.m.m.m.m.m.m.m.m.m.m.m.m.m.m.m.m.m.m.m.m.m.m.m.m.m.m.m.m.m.m.m.m.m.m.m.m.m.m.m.m.m.m.m.m.m.m.m.m.",
"m.m.m.m.m.m.m.m.m.m.m.m.m.m.m.m.m.m.m.m.m.m.m.m.m.m.m.m.m.m.m.m.m.m.m.m.m.m.m.m.m.m.m.m.m.m.m.m.m.m.m.m.m.m.m.m.m.m.m.m.m.m.m.m.",
"m.m.m.m.m.m.m.m.m.m.m.m.m.m.m.m.m.m.m.m.m.m.m.m.m.m.m.m.m.m.m.m.m.m.m.m.m.m.m.m.m.m.m.m.m.m.m.m.m.m.m.m.m.m.m.m.m.m.m.m.m.m.m.m.",
"m.m.m.m.m.m.m.m.m.m.m.m.m.m.m.m.m.m.m.m.m.m.m.m.O # # # # m.m.m.m.m.m.m.m.m.m.m.m.m.m.m.m.m.m.m.m.m.m.m.m.m.m.m.m.m.m.m.m.m.m.m.",
"m.m.m.m.m.m.m.m.m.m.m.m.m.m.m.m.m.m.m.m.m.m.m.+ t B T T U s m.m.m.m.m.m.m.m.m.m.m.m.m.m.m.m.m.m.m.m.m.m.m.m.m.m.m.m.m.m.m.m.m.m.",
"m.m.m.m.m.m.m.2 7 5 m.m.m.m.m.m.m.m.m.m.m.m.$ k S 5.y.p.y.*.j m.m.m.m.m.m.1 7 e 7 m.m.m.m.m.m.m.m.m.m.m.m.m.m.m.m.m.m.m.m.m.m.m.",
"m.m.m.m.m.m.7 ( 3.<.J m.m.m.m.m.m.m.m.m.m.% c X.7.h.z.x.x.j.<.j O m.X 0 a Q 3.3.<.w * m.m.m.m.m.m.m.m.m.m.m.m.m.m.m.m.m.m.m.m.m.",
"m.m.m.m.m.; Q y.j.j.3.J m.m.m.m.m.m.m.m.& b -.p.j.j.x.x.x.x.j.,.Y I Y 3.y.s.k.x.j.3.I # m.m.m.m.m.m.m.m.m.m.m.m.m.m.m.m.m.m.m.m.",
"m.m.m.m.+ v >.j.j.x.x.u.f m.m.m.m.m.m.% k | w.k.k.j.x.x.x.x.k.j.j.s.j.j.x.x.x.x.k.k.r.' j m.m.m.m.m.m.m.m.m.m.m.m.m.m.m.m.m.m.m.",
"m.m.m.m.% N 0.j.k.k.x.n.f.J # m.m.m.- x [ 0.j.x.k.x.x.x.x.x.x.x.j.k.x.x.x.k.x.x.k.k.x.j.3.L m.m.m.m.m.m.m.m.m.m.m.m.m.m.m.m.m.m.",
"m.m.m.m.+ N 0.j.k.k.c.b.b.a.E < $ + t A  .w.j.x.k.k.x.x.x.x.k.x.x.x.x.x.x.x.x.x.x.x.x.k.j.=.f m.m.m.m.m.m.m.m.m.m.m.m.m.m.m.m.m.",
"m.m.m.m.% b 6.j.k.x.k.b.n.b.f.r.*.C Z [ 4.h.z.x.x.x.x.x.x.x.x.x.x.x.z.x.x.x.z.x.x.x.x.x.k.s._ 7 m.m.m.m.m.m.m.# # m.m.m.m.m.m.m.",
"m.m.m.m.+ z O.e.j.x.k.c.n.n.b.c.k.p.:.O.q.j.x.k.x.x.x.x.x.x.x.k.x.x.x.x.x.x.x.x.x.x.x.x.k.k.a.~ 3 o O 3 3 3 u ~ ) s 3 m.m.m.m.m.",
"m.m.m.m.+ i } w.j.z.z.x.n.n.b.v.z.j.e.w.h.z.z.x.x.x.x.x.x.k.k.k.x.x.x.x.x.x.x.x.x.x.x.x.x.x.j.7.T g v ..o.o.-.4.5.;.' J m.m.m.m.",
"m.m.m.m.m.- C 4.d.z.x.x.x.v.b.x.z.j.h.j.z.z.x.x.z.x.x.x.x.x.k.k.x.x.x.x.x.x.x.x.x.x.z.x.x.k.j.h.e.0.0.0.0.5.0.0.0.p.g.,.s m.m.m.",
"m.m.m.m.m.- m +.i.j.x.x.x.x.x.x.x.x.x.x.x.x.x.x.x.x.x.x.j.r.3.h.x.k.x.x.x.k.x.x.x.x.j.k.x.x.x.x.g.e.0.0.0.0.0.0.e.d.l.l.j m.m.m.",
"m.m.m.m.m.& c } q.j.x.x.x.x.x.x.x.z.x.x.x.x.x.k.x.x.x.k.u.I K t.x.x.x.x.x.x.x.x.x.s.&.3.x.x.k.x.l.d.i.8.0.5.0.q.d.l.x.x.j m.m.m.",
"m.m.m.m.m.o t Z :.d.j.z.x.x.z.x.x.x.x.x.x.x.x.x.k.x.x.x.f.' ` s.x.x.x.x.x.x.x.x.x.r.a R x.x.x.x.l.l.g.q.0.0.0.q.j.x.x.x.j m.m.m.",
"m.m.m.m.m.m., Z O.8.j.z.x.x.x.x.x.x.x.x.x.z.x.x.k.k.x.x.k.h.f.j.x.x.x.x.x.x.k.x.x.s.' *.x.x.x.x.x.x.l.d.0.0.0.q.d.x.x.x.h m.m.m.",
"m.m.m.m.m.m.& l S 4.j.l.x.x.x.x.x.x.x.x.x.x.x.x.k.k.k.k.k.k.k.x.x.k.x.x.x.x.x.x.k.k.f.h.k.k.x.x.x.x.x.l.i.0.0.i.j.x.x.x.j m.m.m.",
"m.m.m.m.m.m.o t A  .q.l.x.x.x.z.h.d.j.x.x.k.k.j._ 3.t.y.f.k.x.x.x.x.x.x.x.x.x.k.k.k.k.k.j.s.*.=.g.x.x.x.j.i.e.d.x.x.x.k.j m.m.m.",
"m.m.m.m.m.m.o t Z [ 5.p.z.z.z.h.e.i.l.z.x.l.x.j.r.J a f _ a.a.a.a.a.a.a.a.a.a.a.u.a.a.a.9.Y I 3.j.x.x.x.x.j.h.j.x.x.j.j.h m.m.m.",
"m.m.m.m.m.m.m.  k ] @.8.e.h.d.q.8.i.j.x.x.x.x.x.k.j.j.f.` 7 7 7 7 7 5 9 5 7 7 7 7 5 7 7 h <.j.x.k.x.x.x.x.x.x.x.x.x.f.I 1 m.m.m.",
"m.m.m.m.m.m.m.  k A } :.0.0.0.0.8.i.j.x.x.x.x.x.x.x.x.x.j.f.s.j.h.h.h.h.h.h.h.h.j.s.s.j.j.j.x.x.x.x.x.x.x.x.x.x.x.j.3.n m.m.m.m.",
"m.m.m.m.m.m.m.  k A ] O.5.5.0.0.8.i.l.x.x.x.x.x.x.x.x.x.x.x.k.k.k.k.k.k.k.k.k.k.x.x.k.x.j.x.k.x.x.x.x.x.x.x.x.x.x.u.P @ m.m.m.m.",
"m.m.m.m.m.m.m.m.: m ] ] O.:.5.0.0.i.j.l.z.x.x.x.x.x.x.x.k.x.x.x.x.x.x.k.k.k.k.k.x.x.x.x.x.x.x.k.x.x.x.k.x.x.x.x.k.&.7 m.m.m.m.m.",
"m.m.m.m.m.m.m.m.+ x A ] ] } +.5.0.i.l.z.x.x.x.x.x.x.x.x.x.x.x.x.x.x.x.k.k.k.k.k.x.x.x.x.x.x.x.x.z.x.x.x.x.x.k.k.u.E O m.m.m.m.m.",
"m.m.m.m.m.m.m.m.> M A ] ] ] ] :.0.i.z.z.x.x.x.l.x.x.x.x.x.x.x.x.x.x.k.k.c.k.k.k.k.x.z.x.x.x.z.x.x.x.x.x.x.x.k.j.*.e m.m.m.m.m.m.",
"m.m.m.m.m.m.m.  k A ] ] ] ] ] 4.0.i.l.z.x.x.x.x.x.x.x.x.x.x.x.x.x.x.k.k.k.x.x.x.x.x.x.x.x.x.x.x.x.x.x.x.x.x.k.j.$.3 m.m.m.m.m.m.",
"m.m.m.m.m.m.m.  k ] ] ] ] ] ] :.8.i.j.x.x.x.x.x.k.x.x.x.x.k.x.x.x.x.x.x.x.x.k.x.x.k.x.x.x.z.x.x.x.x.x.x.x.x.x.j.$.3 m.m.m.m.m.m.",
"m.m.m.m.m.m.m.: M ] ] ] ] ] ] :.8.i.j.x.x.x.x.z.x.x.x.x.x.x.x.x.x.x.x.x.x.x.x.x.x.x.x.x.x.x.x.k.x.z.x.x.x.x.x.j.$.3 m.m.m.m.m.m.",
"m.m.m.m.m.m.% k A ] ] ] ] ] ] 4.0.i.j.x.k.x.x.x.x.x.x.z.x.x.z.x.x.x.x.x.x.x.x.x.x.x.x.z.x.x.x.x.x.k.x.x.x.x.x.j.,.f m.m.m.m.m.m.",
"m.m.m.m.m.m.> M A ] ] ] ] ] ] :.0.i.j.x.x.x.x.x.x.x.x.x.x.x.x.x.k.x.x.x.x.x.x.x.x.x.x.x.x.x.x.x.x.x.x.x.x.x.x.x.j./ O m.m.m.m.m.",
"m.m.m.m.m.% k A ] ] ] ] ] ] ] :.0.i.z.x.x.x.k.x.x.z.x.x.x.x.x.x.x.x.x.x.x.x.k.x.k.x.x.x.x.k.x.x.x.x.k.x.x.x.x.k.x.3.h m.m.m.m.m.",
"m.m.m.m.m.: m ] ] ] ] ] ] ] ] 4.0.i.l.x.x.x.x.x.x.x.x.x.x.k.x.x.x.x.x.k.x.x.x.x.x.x.x.x.x.x.x.x.x.z.x.x.x.z.x.x.v.c.t.P m.m.m.m.",
"m.m.m.m.% i Z ] ] ] ] ] ] ] O.5.8.i.l.l.x.x.x.x.x.x.x.x.x.x.z.x.x.x.x.x.x.x.x.x.x.x.x.z.x.x.x.x.x.x.x.x.x.x.x.x.x.n.c.W 3 m.m.m.",
"m.m.m.& x A ] ] ] ] ] ] ] ] +.0.e.j.z.z.x.x.z.x.x.x.k.x.x.x.x.x.x.x.x.x.x.x.x.x.x.x.x.x.x.x.x.z.x.x.x.x.x.x.x.x.x.b.n.v.! 2 m.m.",
"m.m.m.> M ] ] ] A ] ] ] ] ] +.0.q.l.x.z.x.x.x.x.x.x.x.x.x.x.x.x.x.x.k.x.x.x.x.z.x.x.x.x.x.x.x.x.x.x.x.x.x.x.x.x.x.b.n.n.f.! m.m.",
"m.m.O i ] ] ] ] ] ] ] ] ] ] +.5.q.l.z.z.x.x.x.x.x.x.x.x.x.z.x.x.x.x.x.x.x.x.x.x.x.x.x.k.x.k.x.x.x.x.x.x.x.x.x.x.k.v.n.n.n.u.# m.",
"m.m.+ k ] ] ] ] ] ] ] ] ] ] +.0.q.l.l.z.l.x.x.x.k.x.z.x.x.k.x.x.x.x.x.x.x.x.x.x.x.x.x.x.x.x.x.x.x.x.x.x.x.x.x.x.k.b.n.n.n.f.1 m.",
"m.m.> M ] ] ] ] ] ] ] ] ] ] +.0.q.l.l.z.x.x.x.x.x.x.x.x.x.x.x.x.x.x.x.x.k.x.x.x.x.x.x.x.x.x.x.z.x.x.k.x.x.x.x.x.x.x.b.b.n.k.R X ",
"m.o t ] ] ] ] ] ] ] ] ] ] ] +.0.q.l.x.x.x.x.x.x.x.x.x.x.x.x.x.x.x.x.x.x.x.x.x.z.z.x.x.x.z.x.x.x.x.x.x.x.x.x.x.x.x.x.x.b.b.c.' X ",
"m.+ t ] ] ] ] ] ] ] ] ] ] ] +.0.w.j.x.x.x.x.x.x.x.x.x.x.x.x.x.k.x.x.x.x.x.x.x.x.x.x.x.x.x.x.x.x.k.x.x.x.x.x.x.x.x.x.x.x.x.s.r m.",
"m.- x ] ] ] ] ] ] ] ] ] ] ] +.0.w.l.x.x.x.l.x.x.x.x.x.z.x.x.x.x.k.x.x.x.k.x.x.x.x.k.x.x.x.k.x.x.x.x.x.x.x.x.x.x.x.x.x.x.k.r.# m.",
"m.: A ] ] ] ] ] ] ] ] ] ] ] +.0.q.j.x.x.x.x.x.x.k.x.x.x.x.x.l.x.x.x.x.x.x.x.x.x.x.x.x.x.x.x.x.x.x.x.x.x.x.x.x.x.x.x.x.x.u.E < m.",
"X > ] ] ] ] ] ] ] ] ] ] ] ] ] 4.q.l.l.l.l.x.x.x.x.x.l.x.x.x.x.x.x.x.x.x.x.x.x.x.x.x.x.x.x.x.x.x.x.x.x.x.x.k.x.x.x.x.k.x.r.e m.m.",
"@ : Z ] ] ] ] ] ] ] ] ] ] ] ] :.0.i.l.l.x.x.x.x.x.x.x.x.x.x.x.x.x.x.z.x.x.x.z.x.x.x.x.k.x.x.x.x.k.x.x.x.x.x.x.x.x.x.j.r.K 8 m.m.",
"m.* i S ] ] ] ] ] ] ] A ] ] ] :.0.e.j.l.x.x.x.x.x.x.x.x.x.x.l.x.x.k.x.x.k.x.x.x.x.x.x.x.x.x.x.k.x.x.x.x.x.x.k.k.x.s.2.R d F m.m.",
"m.* t ] ] ] ] ] ] ] ] ] ] ] ] } 4.q.p.l.z.x.x.x.x.x.x.x.x.x.x.x.x.x.x.x.x.x.x.x.x.z.x.x.x.z.x.x.x.x.x.x.x.x.k.j.s.! 4 8 F H H m.",
"m.4 6 M ] ] ] ] ] ] ] ] ] ] ] } :.0.e.j.x.x.x.x.x.x.x.x.x.x.x.x.x.x.x.x.x.x.x.x.x.x.x.k.x.x.x.x.k.x.x.x.x.k.s.=.I d H H H H H m.",
"m.G 9 w M A ] ] ] ] ] ] ] ] ] ] +.0.q.p.l.x.x.x.l.x.x.x.x.l.x.x.x.x.x.x.x.z.x.x.x.x.x.x.x.x.x.x.x.x.x.j.u.r.' 0 8 G H H H H H m.",
"m.H H d 6 z Z A ] ] ] A ] ] ] ] } 4.0.e.d.x.l.x.x.x.x.x.x.x.x.x.x.x.z.x.z.x.k.k.k.k.x.x.k.k.x.x.x.j.r.3.a d d F H H H H H H H m.",
"m.H H G r 4 y c m Z A A A A ] ] ] +.:.0.e.d.l.x.x.x.x.x.x.x.x.x.z.z.j.h.h.s.f.f.h.f.f.h.f.f.y.<.,.$.P d r D F H H H H H H H H m.",
"m.H H H H F r 4 3 y i i i k M A A ] | @.5.w.p.g.j.l.l.l.j.l.l.j.j.p.y.8.5.o.Q / / / / / / / I r 9 0 D F H H H H H H H H H H H m.",
"m.H H H H H G G d 0 9 7 9 9 w y y y p V { o.-.;.3.1.1.1.3.1.1.1.;.) L n n h 0 r r r r e r r r F F G H H H H H H H H H H H H H m.",
"m.m.H H H H H H H H H H H H d 8 8 8 8 7 w s g g p s g g s s g g g 0 8 8 8 d H H H H H H H H H H H H H H H H H H H H H H H H m.m.",
"m.m.H H H H H H H H H H H H G G H H G D q q q q q q q q q q q q q F H H H H H H H H H H H H H H H H H H H H H H H H H H H m.m.m.",
"m.m.m.H H H H H H H H H H H H H H H H G F F F F F F F F F F F G G G H H H H H H H H H H H H H H H H H H H H H H H H H H m.m.m.m.",
"m.m.m.m.m.H H H H H H H H H H H H H H H H H H H H H H H H H H H H H H H H H H H H H H H H H H H H H H H H H H H H H m.m.m.m.m.m.",
"m.m.m.m.m.m.m.m.H H H H H H H H H H H H H H H H H H H H H H H H H H H H H H H H H H H H H H H H H H H H H H m.m.m.m.m.m.m.m.m.m.",
"m.m.m.m.m.m.m.m.m.m.m.m.H H H H H H H H H H H H H H H H H H H H H H H H H H H H H H H H H H H H H H H m.m.m.m.m.m.m.m.m.m.m.m.m."
};
