/* XPM */
static char *result[] = {
/* columns rows colors chars-per-pixel */
"64 64 27 1 ",
"  c black",
". c gray27",
"X c #464646",
"o c #67674D",
"O c #67674E",
"+ c #68684E",
"@ c #906F45",
"# c #907045",
"$ c #917045",
"% c #917046",
"& c #B89034",
"* c #B99034",
"= c #B99134",
"- c #B99135",
"; c #D8B034",
": c #D8B134",
"> c #D9B134",
", c #D9B135",
"< c #80806F",
"1 c #98986F",
"2 c #808070",
"3 c #818170",
"4 c #999970",
"5 c #E8D878",
"6 c #E8D978",
"7 c #E9D978",
"8 c #6FC8A0",
/* pixels */
"8888888888882222ooooXXXX66665555++++++++OOOOOOOOOOOO<<<<88888888",
"8888888888882222ooooXXXX66665555++++++++OOOOOOOOOOOO<<<<88888888",
"8888888888882222ooooXXXX66665555++++++++OOOOOOOOOOOO<<<<88888888",
"8888888888882222ooooXXXX66665555++++++++OOOOOOOOOOOO<<<<88888888",
"88882222OOOOOOOO....5555>>>>....................OOOOOOOO<<<<8888",
"88882222OOOOOOOO....5555>>>>....................OOOOOOOO<<<<8888",
"88882222OOOOOOOO....5555>>>>....................OOOOOOOO<<<<8888",
"88882222OOOOOOOO....5555>>>>....................OOOOOOOO<<<<8888",
"8888OOOOOOOO........>>>>XXXX........XXXXXXXXXXXX....ooooOOOO<<<<",
"8888OOOOOOOO........>>>>XXXX........XXXXXXXXXXXX....ooooOOOO<<<<",
"8888OOOOOOOO........>>>>XXXX........XXXXXXXXXXXX....ooooOOOO<<<<",
"8888OOOOOOOO........>>>>XXXX........XXXXXXXXXXXX....ooooOOOO<<<<",
"2222OOOO........XXXX####>>>>XXXXXXXX....XXXX....XXXX%%%%@@@@OOOO",
"2222OOOO........XXXX####>>>>XXXXXXXX....XXXX....XXXX%%%%@@@@OOOO",
"2222OOOO........XXXX####>>>>XXXXXXXX....XXXX....XXXX%%%%@@@@OOOO",
"2222OOOO........XXXX####>>>>XXXXXXXX....XXXX....XXXX%%%%@@@@OOOO",
"++++XXXX....    XXXX::::****7777        ....XXXX@@@@77777777OOOO",
"++++XXXX....    XXXX::::****7777        ....XXXX@@@@77777777OOOO",
"++++XXXX....    XXXX::::****7777        ....XXXX@@@@77777777OOOO",
"++++XXXX....    XXXX::::****7777        ....XXXX@@@@77777777OOOO",
"OOOO....        XXXX,,,,    ****5555            6666>>>>XXXXoooo",
"OOOO....        XXXX,,,,    ****5555            6666>>>>XXXXoooo",
"OOOO....        XXXX,,,,    ****5555            6666>>>>XXXXoooo",
"OOOO....        XXXX,,,,    ****5555            6666>>>>XXXXoooo",
"OOOO            XXXX::::        $$$$7777    %%%%7777    ....++++",
"OOOO            XXXX::::        $$$$7777    %%%%7777    ....++++",
"OOOO            XXXX::::        $$$$7777    %%%%7777    ....++++",
"OOOO            XXXX::::        $$$$7777    %%%%7777    ....++++",
"OOOO            XXXX====>>>>        ====,,,,XXXX7777        ++++",
"OOOO            XXXX====>>>>        ====,,,,XXXX7777        ++++",
"OOOO            XXXX====>>>>        ====,,,,XXXX7777        ++++",
"OOOO            XXXX====>>>>        ====,,,,XXXX7777        ++++",
"OOOO            XXXX====&&&&,,,,        ****....>>>>        OOOO",
"OOOO            XXXX====&&&&,,,,        ****....>>>>        OOOO",
"OOOO            XXXX====&&&&,,,,        ****....>>>>        OOOO",
"OOOO            XXXX====&&&&,,,,        ****....>>>>        OOOO",
"OOOO            XXXX====    ---->>>>        ....::::        OOOO",
"OOOO            XXXX====    ---->>>>        ....::::        OOOO",
"OOOO            XXXX====    ---->>>>        ....::::        OOOO",
"OOOO            XXXX====    ---->>>>        ....::::        OOOO",
"OOOO                OOOO        ****;;;;    ....>>>>        OOOO",
"OOOO                OOOO        ****;;;;    ....>>>>        OOOO",
"OOOO                OOOO        ****;;;;    ....>>>>        OOOO",
"OOOO                OOOO        ****;;;;    ....>>>>        OOOO",
"OOOO                ++++&&&&        %%%%>>>>....;;;;        OOOO",
"OOOO                ++++&&&&        %%%%>>>>....;;;;        OOOO",
"OOOO                ++++&&&&        %%%%>>>>....;;;;        OOOO",
"OOOO                ++++&&&&        %%%%>>>>....;;;;        OOOO",
"oooo....                ++++OOOO        $$$$XXXX::::        ++++",
"oooo....                ++++OOOO        $$$$XXXX::::        ++++",
"oooo....                ++++OOOO        $$$$XXXX::::        ++++",
"oooo....                ++++OOOO        $$$$XXXX::::        ++++",
"1111++++....                OOOO++++        ....++++    ....4444",
"1111++++....                OOOO++++        ....++++    ....4444",
"1111++++....                OOOO++++        ....++++    ....4444",
"1111++++....                OOOO++++        ....++++    ....4444",
"88881111OOOOOOOOXXXXXXXX        OOOOOOOO    ....    ....44448888",
"88881111OOOOOOOOXXXXXXXX        OOOOOOOO    ....    ....44448888",
"88881111OOOOOOOOXXXXXXXX        OOOOOOOO    ....    ....44448888",
"88881111OOOOOOOOXXXXXXXX        OOOOOOOO    ....    ....44448888",
"8888888844443333OOOOOOOOOOOOOOOOoooo++++++++OOOO++++111188888888",
"8888888844443333OOOOOOOOOOOOOOOOoooo++++++++OOOO++++111188888888",
"8888888844443333OOOOOOOOOOOOOOOOoooo++++++++OOOO++++111188888888",
"8888888844443333OOOOOOOOOOOOOOOOoooo++++++++OOOO++++111188888888"
};
