/* XPM */
static char *result[] = {
/* columns rows colors chars-per-pixel */
"64 42 206 2 ",
"   c #000101",
".  c #090605",
"X  c #0A0807",
"o  c #050E0F",
"O  c #0A0808",
"+  c #130302",
"@  c #1F0200",
"#  c #170806",
"$  c #1B0907",
"%  c #1D0A09",
"&  c #060E10",
"*  c #03161A",
"=  c #03181D",
"-  c #1D1C1F",
";  c #220202",
":  c #2B0000",
">  c #270B07",
",  c #2A110C",
"<  c #2A1816",
"1  c #311E1A",
"2  c #331214",
"3  c #33211D",
"4  c #051D22",
"5  c #02252B",
"6  c #18282B",
"7  c #1E3336",
"8  c #082E33",
"9  c #342726",
"0  c #212B32",
"q  c #213539",
"w  c #2A3B3E",
"e  c #273437",
"r  c #373739",
"t  c #36383B",
"y  c #393A3C",
"u  c #363638",
"i  c #471918",
"p  c #47241E",
"a  c #472826",
"s  c #422C30",
"d  c #5E3F3B",
"f  c #653533",
"g  c #003B46",
"h  c #253D47",
"j  c #3D3E41",
"k  c #00424D",
"l  c #1D494F",
"z  c #3A4449",
"x  c #2E4A54",
"c  c #3C5B67",
"v  c #2B5766",
"b  c #346578",
"n  c #3D616B",
"m  c #414244",
"M  c #47484A",
"N  c #4A4C51",
"B  c #4F5156",
"V  c #4D565C",
"C  c #505257",
"Z  c #774A48",
"A  c #505C64",
"S  c #416A77",
"D  c #92332E",
"F  c #823431",
"G  c #9B3E3A",
"H  c #B8342D",
"J  c #A43F38",
"K  c #CF3F33",
"L  c #E83A2F",
"P  c #99413A",
"I  c #A8443C",
"U  c #B3433C",
"Y  c #C4463E",
"T  c #D94137",
"R  c #EA4437",
"E  c #F14A3D",
"W  c #FF453A",
"Q  c #B7554C",
"!  c #BA5B54",
"~  c #A25E58",
"^  c #B5605A",
"/  c #A5655D",
"(  c #946662",
")  c #C94941",
"_  c #CC574C",
"`  c #CE5B53",
"'  c #D35A53",
"]  c #D65E59",
"[  c #D85247",
"{  c #E24F43",
"}  c #F34F42",
"|  c #F84E41",
" . c #E75649",
".. c #F55144",
"X. c #FD5345",
"o. c #FD5B4C",
"O. c #FB584D",
"+. c #EC5E53",
"@. c #E75E52",
"#. c #FD5F53",
"$. c #F65E52",
"%. c #CA6258",
"&. c #D36056",
"*. c #D6625B",
"=. c #DA6257",
"-. c #FF604F",
";. c #ED6255",
":. c #EF6559",
">. c #F56256",
",. c #FD6355",
"<. c #F5655A",
"1. c #FE6659",
"2. c #FF6B5C",
"3. c #FA6A59",
"4. c #DC6B62",
"5. c #CE766F",
"6. c #FA6E61",
"7. c #E87368",
"8. c #FF7162",
"9. c #FF7865",
"0. c #E56F65",
"q. c #3A7487",
"w. c #3F7E92",
"e. c #2B7C9B",
"r. c #417F94",
"t. c #3C8DA9",
"y. c #3587A2",
"u. c #3E92AC",
"i. c #3A99B7",
"p. c #4C8699",
"a. c #4B889C",
"s. c #51879A",
"d. c #52899B",
"f. c #5A889A",
"g. c #428EA4",
"h. c #518EA1",
"j. c #4593AC",
"k. c #4B94AB",
"l. c #4A9AAF",
"z. c #5491A6",
"x. c #5195AA",
"c. c #449BB5",
"v. c #4C9AB2",
"b. c #489EB9",
"n. c #509EB5",
"m. c #45A2BE",
"M. c #4FA1B8",
"N. c #50A2BB",
"B. c #68A6B2",
"V. c #27B1DC",
"C. c #36BCE7",
"Z. c #4CACC3",
"A. c #47A7C4",
"S. c #52ABC3",
"D. c #4AB2CF",
"F. c #59B8CC",
"G. c #4AB6D6",
"H. c #43B6DA",
"J. c #44B9DD",
"K. c #4DBBDD",
"L. c #4BB7D3",
"P. c #51B8D6",
"I. c #51BCDB",
"U. c #50B3D0",
"Y. c #62BFD5",
"T. c #4ABEE1",
"R. c #46BFE5",
"E. c #39C7F2",
"W. c #2FCBF8",
"Q. c #3CE4FF",
"!. c #57C0D8",
"~. c #4FC1D8",
"^. c #74C7D8",
"/. c #4CC3E5",
"(. c #4DC6E9",
"). c #49C6EA",
"_. c #55CDEE",
"`. c #55C4E2",
"'. c #4CCCF4",
"]. c #4CD3FB",
"[. c #45D1FB",
"{. c #59D3F4",
"}. c #54D6FA",
"|. c #54DBFD",
" X c #56D3F6",
".X c #60CDEA",
"XX c #61D1E0",
"oX c #5AE4FF",
"OX c #54ECFF",
"+X c #5BEBFF",
"@X c #57E5FF",
"#X c #59F2FF",
"$X c #66FFFF",
"%X c #64E8FE",
"&X c #9A8C8A",
"*X c #FF9B91",
"=X c #E6B3AE",
"-X c #AFEBFC",
";X c #CADBDE",
":X c #D8E5E7",
">X c #EDF6F9",
",X c #F4FAFB",
"<X c #FFFFFF",
"1X c #F9F4F3",
"2X c #F5E4E2",
"3X c None",
/* pixels */
"3X3X3X3X3X3X3X3X3X3X3X3X3X3X3X3X3X3X3X3X3X3X3X3X3X3X3X3X3X3X3X3X3X3X3X3X3X3X3X3X3X3X3X3X3X3X3X3X3X3X3X3X3X3X3X3X3X3X3X3X3X3X3X3X",
"3X3X3X3X3X3X3X3X3X3X3X3X3X3X3X3X3X3X3X3X3X3X3X3X3X3X3X3X3X3X3X3X3X3X3X3X3X3X3X3X3X3X3X3X3X3X3X3X3X3X3X3X3X3X3X3X3X3X3X3X3X3X3X3X",
"3X3X3X3X3X3X3X3X3X3X3X3X3X3X3X3X3X3X3X3X3X3X3X3X3X3X3X3X3X3X3X3X3X3X3X3X3X3X3X3X3X3X3X3X3X3X3X3X3X3X3X3X3X3X3X3X3X3X3X3X3X3X3X3X",
"3X3X3X3X3X3X3X3X3X3X3X3X3X3X3X3X3X3X3X3X3X3X3X3X3X3X3X3X3X3X3X3X3X3X3X3X3X3X3X3X3X3X3X3X3X3X3X3X3X3X3X3X3X3X3X3X3X3X3X3X3X3X3X3X",
"3X3X3X3X3X3X3X3X3X3X3X3X3X3X3X3X3X3X3X3X3X3X3X3X3X3X3X3X3X3X3X3X3X3X3X3X3X3X3X3X3X3X3X3X3X3X3X3X3X3X3X3X3X3X3X3X3X3X3X3X3X3X3X3X",
"3X3X3X3X3X3X3X3X3X3X3X3X3X3X3X3X3X3X3X3X3X3X3X3X3X3X3X3X3X3X3X3X3X3X3X3X3X3X3X3X3X3X3X3X3X3X3X3X3X3X3X3X3X3X3X3X3X3X3X3X3X3X3X3X",
"3X3X3X3X3X3X3X3X3X3X3X3X3X3X3X3X3X3X3X3X3X3X3X3X3X3X3X3X3X3X3X3X3X3X3X3X3X3X3X3X3X3X3X3X3X3X3X3X3X3X3X3X3X3X3X3X3X3X3X3X3X3X3X3X",
"3X3X3X3X3X3X3X3X3X3X3X3X3X3X3X3X3X3X3X3X3X3X3X3X3X3X3X3X3X3X3X3X3X3X3X3X3X3X3X3X3X3X3X3X3X3X3X3X3X3X3X3X3X3X3X3X3X3X3X3X3X3X3X3X",
"3X3X3X3XB.^.Y.F..X-X&Xy B B B B N j m N C C B B B B B B B B C B C B B B C C C C C B B B C C B N B B C C z 3X*X2.0.0.5.( 3X3X3X3X",
"3X3X3XXX%X X_.{.|.N.3 .                                                                                 o w ' +.2.1.2.2._ 3X3X3X",
"3X3X~.oXP.I.{.v.w.k.3 .     = 5 4 4 4 * = 4 4 4 4 4 4 = * * * o + ; $ $ $ $ $ $ $ $ $ $ $ $ $ $ $ +     & e Q u _ 8.1.>.3.I 3X3X",
"3XB.[.I.{.|.|.~.(.M.3 X     3X<X<X<X<X<X<X<X<X<X<X<X<X<X<X<X<X<X<X<X<X<X<X<X<X<X<X<X<X<X<X<X<X<X<X2X,   & w %._ ;.` ! :.<.} 5.3X",
"3X`./.}.L.n g.|.+Xv.3 O     ;X<X<X<X<X<X<X<X<X<X<X<X<X<X<X<X<X<X<X<X<X<X<X<X<X<X<X<X<X<X<X<X<X<X<X<X$   & q &.9.,.z k  .9.X.7.3X",
"v.A.}.L.9 d p q.#Xv.1 O     3X<X<X<X<X<X<X<X<X<X<X<X<X<X<X<X<X<X<X<X<X<X<X<X<X<X<X<X<X<X<X<X<X<X<X<X#   & e =.%.^ G F ! ~ ..4.3X",
"z.m.OXq.> A 9 u OXN.1 O   O 3X<X<X<X<X<X<X<X<X<X<X<X<X<X<X<X<X<X<X<X<X<X<X<X<X<X<X<X<X<X<X<X<X<X<X<X#   & w ' M g o.2.z k K 7.3X",
"z.M._.V.< , ; b OXl.3 O     3X<X<X<X<X<X<X<X<X<X<X<X<X<X<X<X<X<X<X<X<X<X<X<X<X<X<X<X<X<X<X<X<X<X<X<X#   o q =.U D ! / J F X.4.3X",
"z.m.).).y.0 v G.|.l.1 X   . 3X<X<X<X<X<X<X<X<X<X<X<X<X<X<X<X<X<X<X<X<X<X<X<X<X<X<X<X<X<X<X<X<X<X<X1X$   & q &.2.-.z k { 8...*.3X",
"h.m./.P./.)./.G.}.l.1 X     3X<X<X<X<X<X<X<X<X<X<X<X<X<X<X<X<X<X<X<X<X<X<X<X<X<X<X<X<X<X<X<X<X<X<X<X#   & 7 &.1.1.I D >.<.E *.3X",
"d.m./.I.K.P.K.K.}.l.3 O   . 3X<X<X<X<X<X<X<X<X<X<X<X<X<X<X<X<X<X<X<X<X<X<X<X<X<X<X<X<X<X<X<X<X<X<X<X#   & q ' 1.;.2.2.>.:.E *.3X",
"d.b./.+XZ.: c OXoXk.1 X     3X<X<X<X<X<X<X<X<X<X<X<X<X<X<X<X<X<X<X<X<X<X<X<X<X<X<X<X<X<X<X<X<X<X<X<X#   & 7 ` 2.,.Y I -.3.E &.3X",
"p.M.(.F.Z.0 q.!.{.n.1 O   . 3X<X<X<X<X<X<X<X<X<X<X<X<X<X<X<X<X<X<X<X<X<X<X<X<X<X<X<X<X<X<X<X<X<X<X<X#   o q ` 2.P l l f ,...' 3X",
"p.L.m.; c $XP.; b F.1 O     3X<X<X<X<X<X<X<X<X<X<X<X<X<X<X<X<X<X<X<X<X<X<X<X<X<X<X<X<X<X<X<X<X<X<X1X#   o q =.-.6 x V 5 Y X.' 3X",
"d.Z.D.h p.!.S.l t.N.1 O     3X<X<X<X<X<X<X<X<X<X<X<X<X<X<X<X<X<X<X<X<X<X<X<X<X<X<X<X<X<X<X<X<X<X<X<X+   o q ' ,.a 5 8 - { X.' 3X",
"d.c.(.+XN.; x %X@Xk.1 O   O 3X<X<X<X<X<X<X<X<X<X<X<X<X<X<X<X<X<X<X<X<X<X<X<X<X<X<X<X<X<X<X<X<X<X<X<X$   o q ` 1.T i 2 H #.E ' 3X",
"s.c.K._.U.x t.oX Xk.1 O     3X<X<X<X<X<X<X<X<X<X<X<X<X<X<X<X<X<X<X<X<X<X<X<X<X<X<X<X<X<X<X<X<X<X<X<X#   & q ` o.O.W L ..;.R ' 3X",
"s.c./.P.T.}.U.v. Xk.1 O   O 3X<X<X<X<X<X<X<X<X<X<X<X<X<X<X<X<X<X<X<X<X<X<X<X<X<X<X<X<X<X<X<X<X<X<X<X#   & 7 ' 1.^ ' O. .;.E ' 3X",
"s.c.T.I.I.|.9 : oXb.< O     3X<X<X<X<X<X<X<X<X<X<X<X<X<X<X<X<X<X<X<X<X<X<X<X<X<X<X<X<X<X<X<X<X<X<X<X#   & 7 @.0.5 N 1.+.;.E ' 3X",
"p.i.T.K.K.(.g.r.|.j.1 O     3X<X<X<X<X<X<X<X<X<X<X<X<X<X<X<X<X<X<X<X<X<X<X<X<X<X<X<X<X<X<X<X<X<X<X1X#   & 7 ' ,.Z Q >.+.:.E ' 3X",
"p.i.R.T.K.G.'.].'.j.1 .     3X<X<X<X<X<X<X<X<X<X<X<X<X<X<X<X<X<X<X<X<X<X<X<X<X<X<X<X<X<X<X<X<X<X<X<X+   o 7 ` 1.1.,.+.+.;.E ] 3X",
"3Xu.C.T.H.T.H.G.[.j.1 O   . :X<X<X<X<X<X<X<X<X<X<X<X<X<X<X<X<X<X<X<X<X<X<X<X<X<X<X<X<X<X<X<X<X<X<X<X%   o 7 ` 1.+.;.+.+.:.E ` 3X",
"3Xf.V.).H.H.R.H.[.j.1 O     3X,X>X>X,X,X,X,X<X,X,X,X<X,X,X,X,X>X1X<X<X1X<X<X<X1X<X1X<X<X<X1X<X1X<X=X>   o 7 _ 1.+.+.+.+.<.L 3X3X",
"3X3Xy.W.).R.C.H.[.t.1 .     & 4 = = = * = = = = = = = = = = 4 = $ ; $ $ $ ; % % $ $ # ; $ $ $ $ $ +     o 0 ` ,.+.+.+.6.L ) 3X3X",
"3X3X3Xe.C.E.E.E.Q.u., X                                                                                 & 6 _ ,.$.$.O.R H 3X3X3X",
"3X3X3X3Xb y.t.t.i.q.9 y t y y y t t t t t u y j m j j m m m m m z y j m y j m y u y t t t t t t j y t t t e U [ ) ) Y 3X3X3X3X3X",
"3X3X3X3X3X3X3X3X3X3X3X3X3X3X3X3X3X3X3X3X3X3X3X3X3X3X3X3X3X3X3X3X3X3X3X3X3X3X3X3X3X3X3X3X3X3X3X3X3X3X3X3X3X3X3X3X3X3X3X3X3X3X3X3X",
"3X3X3X3X3X3X3X3X3X3X3X3X3X3X3X3X3X3X3X3X3X3X3X3X3X3X3X3X3X3X3X3X3X3X3X3X3X3X3X3X3X3X3X3X3X3X3X3X3X3X3X3X3X3X3X3X3X3X3X3X3X3X3X3X",
"3X3X3X3X3X3X3X3X3X3X3X3X3X3X3X3X3X3X3X3X3X3X3X3X3X3X3X3X3X3X3X3X3X3X3X3X3X3X3X3X3X3X3X3X3X3X3X3X3X3X3X3X3X3X3X3X3X3X3X3X3X3X3X3X",
"3X3X3X3X3X3X3X3X3X3X3X3X3X3X3X3X3X3X3X3X3X3X3X3X3X3X3X3X3X3X3X3X3X3X3X3X3X3X3X3X3X3X3X3X3X3X3X3X3X3X3X3X3X3X3X3X3X3X3X3X3X3X3X3X",
"3X3X3X3X3X3X3X3X3X3X3X3X3X3X3X3X3X3X3X3X3X3X3X3X3X3X3X3X3X3X3X3X3X3X3X3X3X3X3X3X3X3X3X3X3X3X3X3X3X3X3X3X3X3X3X3X3X3X3X3X3X3X3X3X",
"3X3X3X3X3X3X3X3X3X3X3X3X3X3X3X3X3X3X3X3X3X3X3X3X3X3X3X3X3X3X3X3X3X3X3X3X3X3X3X3X3X3X3X3X3X3X3X3X3X3X3X3X3X3X3X3X3X3X3X3X3X3X3X3X",
"3X3X3X3X3X3X3X3X3X3X3X3X3X3X3X3X3X3X3X3X3X3X3X3X3X3X3X3X3X3X3X3X3X3X3X3X3X3X3X3X3X3X3X3X3X3X3X3X3X3X3X3X3X3X3X3X3X3X3X3X3X3X3X3X",
"3X3X3X3X3X3X3X3X3X3X3X3X3X3X3X3X3X3X3X3X3X3X3X3X3X3X3X3X3X3X3X3X3X3X3X3X3X3X3X3X3X3X3X3X3X3X3X3X3X3X3X3X3X3X3X3X3X3X3X3X3X3X3X3X"
};
