/* XPM */
static char *result[] = {
/* columns rows colors chars-per-pixel */
"64 64 256 2 ",
"   c #6FC8A1",
".  c #6EC99E",
"X  c #72C99D",
"o  c #71C6A3",
"O  c #72CAA3",
"+  c #6EC7A2",
"@  c #69BD8D",
"#  c #29772E",
"$  c #44963A",
"%  c #32711C",
"&  c #50A366",
"*  c #78BF9F",
"=  c #236E25",
"-  c #91DA6F",
";  c #BAFA8B",
":  c #BEF887",
">  c #87D15D",
",  c #2E721B",
"<  c #6CC49D",
"1  c #5BA87A",
"2  c #338133",
"3  c #75C04E",
"4  c #B3F986",
"5  c #256314",
"6  c #7AC6A5",
"7  c #7CCB7A",
"8  c #186613",
"9  c #448B34",
"0  c #7FCC5E",
"q  c #B4FB8C",
"w  c #C0FB9A",
"e  c #7CD265",
"r  c #5AAE4E",
"t  c #25722B",
"y  c #3C8D52",
"u  c #74C79D",
"i  c #67BC90",
"p  c #84D06C",
"a  c #1A6724",
"s  c #3B922A",
"d  c #AEFA8C",
"f  c #B7F787",
"g  c #82D164",
"h  c #ADFB92",
"j  c #42912B",
"k  c #3A8C3B",
"l  c #28773B",
"z  c #3B9126",
"x  c #BCF685",
"c  c #8ACC5D",
"v  c #AAF996",
"b  c #1C6325",
"n  c #79C79A",
"m  c #469646",
"M  c #398729",
"N  c #439124",
"B  c #B4FC92",
"V  c #83CD5E",
"C  c #498C25",
"Z  c #3C8D2D",
"A  c #7BC58E",
"S  c #78C89D",
"D  c #ACF68B",
"F  c #3E8B1F",
"G  c #B3F99B",
"H  c #7DCA77",
"J  c #74C493",
"K  c #B3FAA4",
"L  c #B4F694",
"P  c #428C1C",
"I  c #BCF994",
"U  c #8ACD64",
"Y  c #3D8C24",
"T  c #428C24",
"R  c #14621A",
"E  c #5AA775",
"W  c #44872D",
"Q  c #83CD64",
"!  c #83C579",
"~  c #79CB94",
"^  c #65AA6A",
"/  c #2B6213",
"(  c #B5F78D",
")  c #B4EF90",
"_  c #245E0E",
"`  c #82C785",
"'  c #8DDAA4",
"]  c #22631B",
"[  c #25640C",
"{  c #7ED16A",
"}  c #73CA94",
"|  c #85C974",
" . c #88C668",
".. c #226404",
"X. c #379124",
"o. c #2A6106",
"O. c #8CCB6C",
"+. c #7ACA86",
"@. c #1C6305",
"#. c #49862C",
"$. c #7CCD64",
"%. c #77D168",
"&. c #3D9827",
"*. c #448631",
"=. c #6DCB93",
"-. c #438B2D",
";. c #7DCB6B",
":. c #6CC58C",
">. c #3D8C33",
",. c #498A2D",
"<. c #72C58C",
"1. c #83CC6A",
"2. c #368C2D",
"3. c #BCF68B",
"4. c #498B33",
"5. c #1C660C",
"6. c #79C592",
"7. c #BAF691",
"8. c #185D21",
"9. c #438745",
"0. c #1C6A03",
"q. c #4D8D3C",
"w. c #23690B",
"e. c #7AD15F",
"r. c #448B3B",
"t. c #1C5F12",
"y. c #1B621D",
"u. c #44873A",
"i. c #80C981",
"p. c #75CF65",
"a. c #81C48E",
"s. c #176609",
"d. c #2B630B",
"f. c #235E1A",
"g. c #80BF8A",
"h. c #88C498",
"j. c #3C9133",
"k. c #2C5D06",
"l. c #246524",
"z. c #90C569",
"x. c #306111",
"c. c #518437",
"v. c #65A970",
"b. c #349954",
"n. c #4C8534",
"m. c #62C79E",
"M. c #65CA94",
"N. c #2D9A54",
"B. c #349445",
"V. c #335A12",
"C. c #2C5D0E",
"Z. c #2B934B",
"A. c #62D29C",
"S. c #2B9A5C",
"D. c #32923C",
"F. c #388B35",
"G. c #2B5D12",
"H. c #335A0F",
"J. c #375B18",
"K. c #2C9860",
"L. c #65D1A1",
"P. c #5CCE97",
"I. c #269954",
"U. c #395613",
"Y. c #2D4508",
"T. c #3D5219",
"R. c #636D4C",
"E. c #578241",
"W. c #355612",
"Q. c #63CC9C",
"!. c #359337",
"~. c #36570D",
"^. c #364117",
"/. c #656847",
"(. c #44522D",
"). c #373E1A",
"_. c #2B9138",
"`. c #6B6A54",
"'. c #69D0A2",
"]. c #3A451A",
"[. c #6B6354",
"{. c #2A8E3D",
"}. c #47AC79",
"|. c #2D9243",
" X c #37411B",
".X c #3C3B22",
"XX c #47B37E",
"oX c #2A975A",
"OX c #259647",
"+X c #2E550D",
"@X c #2F8F43",
"#X c #45B382",
"$X c #348E3C",
"%X c #4BB17C",
"&X c #85C0A5",
"*X c #85BD9D",
"=X c #86BDA2",
"-X c #59A885",
";X c #438E55",
":X c #458F4F",
">X c #4C853D",
",X c #45965B",
"<X c white",
"1X c #CBCBCB",
"2X c gray80",
"3X c #CDCDCD",
"4X c #CECECE",
"5X c gray81",
"6X c #D0D0D0",
"7X c gray82",
"8X c #D2D2D2",
"9X c LightGray",
"0X c gray83",
"qX c #D5D5D5",
"wX c gray84",
"eX c #D7D7D7",
"rX c #D8D8D8",
"tX c gray85",
"yX c #DADADA",
"uX c gray86",
"iX c gainsboro",
"pX c #DDDDDD",
"aX c gray87",
"sX c #DFDFDF",
"dX c gray88",
"fX c #E1E1E1",
"gX c #E2E2E2",
"hX c gray89",
"jX c #E4E4E4",
"kX c gray90",
"lX c #E6E6E6",
"zX c #E7E7E7",
"xX c gray91",
"cX c #E9E9E9",
"vX c #EAEAEA",
"bX c gray92",
"nX c #ECECEC",
"mX c gray93",
"MX c #EEEEEE",
"NX c #EFEFEF",
"BX c gray94",
"VX c #F1F1F1",
"CX c gray95",
"ZX c #F3F3F3",
"AX c #F4F4F4",
"SX c gray96",
"DX c #F6F6F6",
"FX c gray97",
"GX c #F8F8F8",
"HX c #F9F9F9",
"JX c gray98",
"KX c #FBFBFB",
"LX c gray99",
"PX c #FDFDFD",
"IX c #FEFEFE",
"UX c white",
/* pixels */
"          . X X X . .     o   O O O   o + + o o o o o @ # # # $ % % % & & o o o o o o + + o + o o o o + + + + + o o o   o o o o ",
"      o o . . . . o o o o o o o o o O + * * X X @ @ = # - - - ; : > > = = , @ @ < o o     o < o o o . + o o o o . . .           ",
"      o o . . . . o o o o o o o o o O + * * X X @ @ = # - - - ; : > > = = , @ @ < o o     o < o o o . + o o o o . . .           ",
"          . X X . o o o o o X o o o o + 1 1 2 2 2 2 3 4 ; ; ; ; - - - - - 3 $ $ 5 & & O O o o o o o o o o o o o o o             ",
"          . X X . o o o o o X o o o o + 1 1 2 2 2 2 3 4 ; ; ; ; - - - - - 3 $ $ 5 & & O O o o o o o o o o o o o o o             ",
"          o       o o o o 6 o o o o o 7 8 8 9 9 0 0 4 q ; ; ; ; : : : w w w q q e r r t t y o o o o o o o o o o o o             ",
"            + + o o o o o u u i i i p a s s e e d d q 4 f f f ; : f f w w w g g h j j a a k # o o o o o o o o o o o             ",
"            + + o o o o o u u i i i p a s s e e d d q 4 f f f ; : f f w w w g g h j j a a k # o o o o o o o o o o o             ",
"+           + + + 6 6 o o X l t t t l z g g q q q q q ; ; ; ; : x ; ; - - c 4 4 > g g j j h v b b b n o o o o o o o o           ",
"                o o o o o u m M M M N g B B d d V V ; ; x x x x w w w : : w V V 4 h h g g C Z % % % A S 6 6 o o                 ",
"                o o o o o u m M M M N g B B d d V V ; ; x x x x w w w : : w V V 4 h h g g C Z % % % A S 6 6 o o                 ",
". o o           o o o o o t m v v v D N d d F F q q 4 ; ; ; ; x - w w : : c q q N h h N N D G H H H a u o o o o o o             ",
". o o           o o o o o t m v v v D N d d F F q q 4 ; ; ; ; x - w w : : c q q N h h N N D G H H H a u o o o o o o             ",
"          < . . X     J J a K L L L P V P P d d q q q q N N N ; I C C B B U q q q Y Y V V T B G G G R J o o < < X X             ",
"          X o o X X X E E 7 W U U U q D T T q q > > g B c c c D B V V L L d Q Q N g g V V q c W W W ! A < < X X . . .           ",
"            o o o ~ ~ ^ ^ / L q q q D V V V N N N N N U 4 4 4 4 4 ; ; d d g z z z e e g g q ( ) ) ) _ ` ' ' ~ ~ X X X           ",
"            o o o ~ ~ ^ ^ / L q q q D V V V N N N N N U 4 4 4 4 4 ; ; d d g z z z e e g g q ( ) ) ) _ ` ' ' ~ ~ X X X           ",
"            o o o ~ ~ ^ ^ / L q q q D V V V N N N N N U 4 4 4 4 4 ; ; d d g z z z e e g g q ( ) ) ) _ ` ' ' ~ ~ X X X           ",
"          o o o . a a ] ] [ w B B B Q P g g q q d d g P d d d > V q q N N N { { e e e Y Y c ( I I I 5 ] a a ~ ~ } }             ",
"o           . . o R R | |  ...U U U ..( ; ; q q q q c e z z z X.X.z z e e e 0 0 q g g h h ..U o.o.o.O.| R R ~ ~ . . . o         ",
"            . . J +.+.Z Z p @.#.#.#.B B q q ; ; q q c d N N N $.%.&.&.g g Q q q > B B U U B C ......O.*.7 7 =.=.. . .           ",
"            . . J +.+.Z Z p @.#.#.#.B B q q ; ; q q c d N N N $.%.&.&.g g Q q q > B B U U B C ......O.*.7 7 =.=.. . .           ",
"                =.R R H H 9 -.@.@.@.L P B B B B g g D q q q q q B d d $.$.D 0 0 q U U L L I ..-.-.-.j ;.R R } } o o o .         ",
"                =.R R H H 9 -.@.@.@.L P B B B B g g D q q q q q B d d $.$.D 0 0 q U U L L I ..-.-.-.j ;.R R } } o o o .         ",
"          . . . :.k k >.>.Z ;.-.-.-.j h h h Y Y d d B q c c c ( q U U B B Q h h T B B B B ,.-.;.;.;.Z -.k k <.<.. . . o . . . o ",
"          . . . :.k k >.>.Z ;.-.-.-.j h h h Y Y d d B q c c c ( q U U B B Q h h T B B B B ,.-.;.;.;.Z -.k k <.<.. . . o . . . o ",
"          X X X A ] ] 9 9 p ;.1.1.1.T C 2.2.X.X.v v B ( L L L 3.3.( ( L L B v v s j j Y Y T 1.1.1.1.1.4.5.5.A A n n o           ",
"          u 6.6.a 5 5  . .$.1.j j j Q { %.%.X.X.&.&.v C I I I 7.I ( ( C C B X.X.X.{ { g g Q C 1.1.1.1.| / / 8.8.6.6.X           ",
"          X ~ ~ 9.| | 9 9 1.Y ;.;.;.$.$.e e X.X.X.X.0.1.G G G 1.1.h h Q Q 0.&.&.&.e e g g $.1.-.-.-.1.-.! ! 9.9.* * u . o o o   ",
"          X ~ ~ 9.| | 9 9 1.Y ;.;.;.$.$.e e X.X.X.X.0.1.G G G 1.1.h h Q Q 0.&.&.&.e e g g $.1.-.-.-.1.-.! ! 9.9.* * u . o o o   ",
"          X ~ ~ 9.| | 9 9 1.Y ;.;.;.$.$.e e X.X.X.X.0.1.G G G 1.1.h h Q Q 0.&.&.&.e e g g $.1.-.-.-.1.-.! ! 9.9.* * u . o o o   ",
"  o o . . u 6.6.R q.q.w.w.-.M 1.1.1.$.z e e %.%.&.&.-.Z p p p p { { { Y Y Y X.X.e e.e.X.X.Q 1.T T T -.[ r.r.t.t.6.6.X o . . .   ",
"          u <.<.y.9 9 @.@.w.W $.$.$.j Q e e e e e e j ;.2.2.2.s s s s $.$.Y e e 0 e e g g j 1.W W W ..@.u.u.t.t.A A u           ",
"      . . u A A i.5.5.p p ,.w.Z Z Z ;.Q U U p p j j p.$.s s s %.%.s s e e $.Y Y $.V V U U 1.-.@.@.@.W 1.5.5.a.a.A A u   + + +   ",
"      . . u A A i.5.5.p p ,.w.Z Z Z ;.Q U U p p j j p.$.s s s %.%.s s e e $.Y Y $.V V U U 1.-.@.@.@.W 1.5.5.a.a.A A u   + + +   ",
"o     . . n ` ` ] H H s s Z s.@.@.@.[ [ O.O.T T Y Y e e Y Y Y p.p.X.X.g g e z z F O.O.d.d.d.@.w.w.w.-.s ;.;.f.f.g.g.u X         ",
"o     . . n ` ` ] H H s s Z s.@.@.@.[ [ O.O.T T Y Y e e Y Y Y p.p.X.X.g g e z z F O.O.d.d.d.@.w.w.w.-.s ;.;.f.f.g.g.u X         ",
".         u h.h.y.j.j.s s Z *.9 9 9 4.d.k.k.,.,.1.1.1.T $.$.$.N Y p p F F p 1.1.C o.o.k.k.4.9 M M M s Z W W l.l.g.g.u +         ",
"o o o o o X E E b 9 9 W W s.>.>.>.>.9 d.k.k.k.k.z.z.O.W  . . .O. . . .C C O.z.z.o.o.o.d.d.-.9 Z Z Z 0.W 4.4.l.l.6.6.u o         ",
"o o o o o X E E b 9 9 W W s.>.>.>.>.9 d.k.k.k.k.z.z.O.W  . . .O. . . .C C O.z.z.o.o.o.d.d.-.9 Z Z Z 0.W 4.4.l.l.6.6.u o         ",
". O O o o X S S A l.l.5 5 9 9 8 8 8 >.#.#.#.x.x.k.k.k...w.w.w.O. .....k.k.o.o.o.d.W W -.-.s s.9 9 9 *._ ] ] a.a.n n X o         ",
"o O O o o o < < 6.g.g.l.l.c.[ *.*.*.>.2.>.>.W W #.#.W @.[ [ [ [ ..[ [ ....9 ,.,.9 Z Z 2.2.j.s [ [ [ c.f.v.v.6.6.X X X           ",
"o O O o o o < < 6.g.g.l.l.c.[ *.*.*.>.2.>.>.W W #.#.W @.[ [ [ [ ..[ [ ....9 ,.,.9 Z Z 2.2.j.s [ [ [ c.f.v.v.6.6.X X X           ",
"O . . . . . X X J * * l.l.f.d.9 9 9 $ >.j.j.5.5.*.*.q.*.4.4.4.W W 9 9 #.#.4.-.-.@.j.j.j.j.s 9 / / / 5 a J J X X o o             ",
"O . . . . . X X J * * l.l.f.d.9 9 9 $ >.j.j.5.5.*.*.q.*.4.4.4.W W 9 9 #.#.4.-.-.@.j.j.j.j.s 9 / / / 5 a J J X X o o             ",
"            X X . =.=.b.b.r.[ *.*.*.*.4.5 5 >.>.9 9 4.5 9 9 9 9 >.*.*.[ [ n.9 9 j./ / q.q.9 *.5 5 5 k b.=.=.. . m.m.O O       o ",
"          .     M.N.N.B.B.k 9 d.d.d./ n.d.d.# # 4.4.V.C.9 9 9 >.>.9 9 d.d.C.,.,.4./ / % % / _ r.r.r.k Z.N.N.M.M.    . . o o o o ",
"      o o . A.A.S.D.D.F.F.>.*.C.C.C.V.V.G.G./ / c.c.H.H./ / / *.9 5 5 V.V.H.n.n.C.C.C.J.J.J.G.9 9 9 >.k B.B.K.K.L.L.          < ",
"      o o . A.A.S.D.D.F.F.>.*.C.C.C.V.V.G.G./ / c.c.H.H./ / / *.9 5 5 V.V.H.n.n.C.C.C.J.J.J.G.9 9 9 >.k B.B.K.K.L.L.          < ",
"      o o . A.A.S.D.D.F.F.>.*.C.C.C.V.V.G.G./ / c.c.H.H./ / / *.9 5 5 V.V.H.n.n.C.C.C.J.J.J.G.9 9 9 >.k B.B.K.K.L.L.          < ",
"      . . . P.P.I.D.D.Z Z -./ C.C.C.U.V.V.V.H.H.V.V.Y.T.J.J.J.R.E.J.J.T.T.Y.V.V.V.W.W.W.W.W.G./ / / r.k B.B.S.S.A.A.Q.O < < <   ",
"          . A.A.b.!.!.j.j.-.x.~.~.~.~.V.U.U.~.~.U.U.^./.R.R.R.(.(.R.R.R.R.).T.T.~.T.T.J.J.J.V._ _ _ 9 >.D.D.I.I.P.P.Q.o . . .   ",
"          . Q.Q.N._._.2.2.9 d.V.V.V.J.V.V.V.~.~.U.U.^.`.`.`.`.`.`.`.`.`.`.).T.T.V.U.U.W.W.T.V./ / / *.F.B.B.S.S.P.P..           ",
"          . Q.Q.N._._.2.2.9 d.V.V.V.J.V.V.V.~.~.U.U.^.`.`.`.`.`.`.`.`.`.`.).T.T.V.U.U.W.W.T.V./ / / *.F.B.B.S.S.P.P..           ",
"            '.'.S._._._._.>.-.C.C.C.C.V.~.~.U.U.U.U.T.].`.`.`.[.[.[.[.].].T.T.T.U.V.V.~.~.V.d.9 9 9 F.!.{.{.K.K.'.'.            ",
"            '.'.S._._._._.>.-.C.C.C.C.V.~.~.U.U.U.U.T.].`.`.`.[.[.[.[.].].T.T.T.U.V.V.~.~.V.d.9 9 9 F.!.{.{.K.K.'.'.            ",
"            Q.Q.}.I.I.|.|.!.F.*.*.*.5 d.H.H.V.V.U.U.W.T. X X X.X.X).).T.T.~.U.U.V.H.H.V.V./ 9 j.j.j._.|.N.N.XXXX+ +             ",
"            Q.Q.}.I.I.|.|.!.F.*.*.*.5 d.H.H.V.V.U.U.W.T. X X X.X.X).).T.T.~.U.U.V.H.H.V.V./ 9 j.j.j._.|.N.N.XXXX+ +             ",
"            O O . XXXXoXoXOX_.$ $ $ *.4./ / / / +X+XH.W.T.T.T.T.T.T.T.U.U.U.V.V.H./ / *.*.9 >._._._.@XK.XXXX+ + + +             ",
"                  P.P.#X#XS.b.@X@X@XB.k F.F.u.u./ / _ d.C.C.C.H.J.x.x.H.H./ G.G.q.r.r.9.9.D.@Xb.b.b.oX#XP.P.o o O O             ",
"          . . . . + +     . XXK.K.K.S.b.Z.Z.@X@XB.B.>.F.>.>.>.F.9 9 9 >.>.F.$X$X|.Z.Z.oXoXoXK.%X%X%XQ.L.+ + O O                 ",
"          . . . . + +     . XXK.K.K.S.b.Z.Z.@X@XB.B.>.F.>.>.>.F.9 9 9 >.>.F.$X$X|.Z.Z.oXoXoXK.%X%X%XQ.L.+ + O O                 ",
"          . . . . + +     . XXK.K.K.S.b.Z.Z.@X@XB.B.>.F.>.>.>.F.9 9 9 >.>.F.$X$X|.Z.Z.oXoXoXK.%X%X%XQ.L.+ + O O                 ",
"&X*X*X*X*X*Xh.h.*X=X=X&X&X&X* * * * -X-Xy y ;X;X:X:Xr.>X>X>X>XE.>X>X>Xu.u.r.:X:X,Xy y -X-X-X6 &X&X&X*X=X=X=X&X&Xh.h.=X=X*X*X*X=X"
};
